<?xml version="1.0" encoding="utf-8"?>
<!-- Generator: Adobe Illustrator 27.5.0, SVG Export Plug-In . SVG Version: 6.00 Build 0)  -->
<svg version="1.1" id="Ñëîé_1" xmlns="http://www.w3.org/2000/svg" xmlns:xlink="http://www.w3.org/1999/xlink" x="0px" y="0px"
	 viewBox="0 0 1225 500" style="enable-background:new 0 0 1225 500;" xml:space="preserve">
<g>
	<rect style="fill:#48CBFF;" width="1225" height="500"/>
</g>
<g>
	<path style="fill:#F2F9FC;" d="M584.611,208.345v-15.737h2.793v13.256h7.111v2.481H584.611z"/>
	<path style="fill:#F2F9FC;" d="M595.858,202.565c0-1.754,0.507-3.183,1.521-4.286c1.013-1.102,2.351-1.654,4.012-1.654
		c1.747,0,3.104,0.53,4.071,1.59c0.967,1.06,1.45,2.51,1.45,4.351c0,1.833-0.492,3.291-1.477,4.372
		c-0.985,1.081-2.333,1.622-4.045,1.622c-1.747,0-3.106-0.546-4.076-1.638C596.344,205.83,595.858,204.377,595.858,202.565z
		 M598.651,202.565c0,2.535,0.913,3.803,2.739,3.803c0.838,0,1.502-0.329,1.992-0.988c0.491-0.659,0.736-1.597,0.736-2.814
		c0-2.499-0.909-3.749-2.729-3.749c-0.838,0-1.504,0.33-1.998,0.988C598.898,200.464,598.651,201.384,598.651,202.565z"/>
	<path style="fill:#F2F9FC;" d="M615.71,199.343c-0.48-0.315-1.006-0.473-1.579-0.473c-0.623,0-1.177,0.283-1.659,0.849
		c-0.484,0.566-0.726,1.257-0.726,2.073v6.553h-2.686V196.84h2.686v1.053c0.752-0.845,1.751-1.268,2.997-1.268
		c0.917,0,1.618,0.14,2.105,0.419L615.71,199.343z"/>
	<path style="fill:#F2F9FC;" d="M628.729,203.414h-8.218c0.05,0.917,0.365,1.629,0.945,2.138c0.58,0.509,1.36,0.763,2.342,0.763
		c1.225,0,2.155-0.318,2.793-0.956l1.042,2.052c-0.945,0.767-2.357,1.149-4.232,1.149c-1.755,0-3.142-0.514-4.163-1.542
		c-1.019-1.027-1.53-2.462-1.53-4.302c0-1.812,0.561-3.28,1.681-4.404c1.121-1.124,2.466-1.686,4.034-1.686
		c1.669,0,3.008,0.498,4.017,1.493c1.01,0.996,1.515,2.263,1.515,3.803C628.955,202.251,628.88,202.748,628.729,203.414z
		 M620.608,201.395h5.65c-0.187-1.683-1.117-2.524-2.793-2.524C621.934,198.87,620.98,199.712,620.608,201.395z"/>
	<path style="fill:#F2F9FC;" d="M644.424,208.345v-7.208c0-1.511-0.677-2.267-2.03-2.267c-0.401,0-0.788,0.118-1.16,0.354
		c-0.372,0.236-0.634,0.509-0.784,0.816v8.304h-2.685v-7.627c0-0.566-0.176-1.015-0.526-1.348c-0.351-0.333-0.845-0.499-1.482-0.499
		c-0.337,0-0.703,0.126-1.102,0.376c-0.396,0.251-0.685,0.526-0.864,0.827v8.271h-2.686V196.84h1.848l0.548,1.01
		c0.745-0.816,1.708-1.225,2.89-1.225c1.525,0,2.675,0.415,3.448,1.246c0.337-0.379,0.806-0.682,1.407-0.908
		c0.602-0.226,1.203-0.338,1.805-0.338c1.282,0,2.279,0.367,2.991,1.101c0.713,0.734,1.069,1.742,1.069,3.024v7.595H644.424z"/>
	<path style="fill:#F2F9FC;" d="M657.357,208.345v-9.303h-1.472v-2.202h4.19v11.505H657.357z M658.743,192.382
		c0.43,0,0.797,0.152,1.101,0.457c0.305,0.305,0.457,0.671,0.457,1.101c0,0.43-0.152,0.797-0.457,1.101
		c-0.304,0.305-0.671,0.457-1.101,0.457c-0.43,0-0.797-0.152-1.101-0.457c-0.305-0.304-0.457-0.671-0.457-1.101
		c0-0.43,0.152-0.796,0.457-1.101C657.946,192.534,658.313,192.382,658.743,192.382z"/>
	<path style="fill:#F2F9FC;" d="M665.672,208.055v4.802h-2.686V196.84h2.686v0.773c0.673-0.659,1.5-0.988,2.481-0.988
		c3.667,0,5.5,2.02,5.5,6.059c0,1.884-0.507,3.334-1.519,4.351c-1.014,1.017-2.398,1.525-4.152,1.525
		C667.137,208.56,666.366,208.391,665.672,208.055z M665.672,199.654v6.048c0.487,0.394,1.057,0.591,1.708,0.591
		c1.239,0,2.129-0.295,2.67-0.886c0.54-0.591,0.811-1.523,0.811-2.798c0-1.36-0.269-2.318-0.806-2.874
		c-0.537-0.555-1.425-0.833-2.664-0.833C666.746,198.902,666.173,199.153,665.672,199.654z"/>
	<path style="fill:#F2F9FC;" d="M675.308,207.604l0.956-2.138c0.802,0.638,1.708,0.956,2.718,0.956c1.046,0,1.568-0.372,1.568-1.117
		c0-0.437-0.157-0.795-0.473-1.074c-0.315-0.279-0.928-0.608-1.837-0.988c-1.983-0.823-2.976-1.977-2.976-3.459
		c0-0.995,0.38-1.771,1.139-2.326c0.759-0.555,1.73-0.833,2.911-0.833c1.196,0,2.32,0.269,3.373,0.806l-0.773,2.084
		c-0.587-0.501-1.403-0.752-2.449-0.752c-0.938,0-1.407,0.373-1.407,1.117c0,0.294,0.154,0.559,0.462,0.795s0.967,0.553,1.977,0.951
		c1.01,0.397,1.736,0.879,2.181,1.445c0.444,0.566,0.666,1.25,0.666,2.052c0,1.067-0.396,1.907-1.186,2.519
		c-0.792,0.612-1.868,0.919-3.229,0.919c-0.767,0-1.381-0.063-1.842-0.188C676.623,208.247,676.031,207.99,675.308,207.604z"/>
	<path style="fill:#F2F9FC;" d="M692.903,208.355v-0.967c-0.38,0.322-0.902,0.598-1.568,0.827c-0.666,0.229-1.278,0.344-1.837,0.344
		c-2.671,0-4.007-1.418-4.007-4.254v-7.466h2.686v7.262c0,1.476,0.662,2.213,1.987,2.213c0.608,0,1.175-0.157,1.697-0.473
		c0.523-0.315,0.87-0.68,1.042-1.096v-7.906h2.686v11.516H692.903z"/>
	<path style="fill:#F2F9FC;" d="M711.81,208.345v-7.208c0-1.511-0.677-2.267-2.03-2.267c-0.401,0-0.788,0.118-1.16,0.354
		c-0.372,0.236-0.634,0.509-0.784,0.816v8.304h-2.686v-7.627c0-0.566-0.176-1.015-0.526-1.348c-0.351-0.333-0.845-0.499-1.482-0.499
		c-0.337,0-0.703,0.126-1.102,0.376c-0.396,0.251-0.686,0.526-0.864,0.827v8.271h-2.686V196.84h1.848l0.548,1.01
		c0.745-0.816,1.708-1.225,2.89-1.225c1.525,0,2.675,0.415,3.448,1.246c0.337-0.379,0.806-0.682,1.407-0.908
		c0.602-0.226,1.203-0.338,1.805-0.338c1.282,0,2.279,0.367,2.991,1.101c0.713,0.734,1.069,1.742,1.069,3.024v7.595H711.81z"/>
	<path style="fill:#F2F9FC;" d="M731.425,208.345v-0.698c-0.222,0.244-0.598,0.456-1.128,0.639c-0.53,0.183-1.078,0.274-1.644,0.274
		c-1.604,0-2.866-0.508-3.787-1.525c-0.92-1.017-1.38-2.435-1.38-4.254c0-1.819,0.528-3.299,1.585-4.442
		c1.056-1.142,2.379-1.713,3.969-1.713c0.874,0,1.669,0.179,2.385,0.537v-4.608l2.686-0.645v16.436H731.425z M731.425,199.59
		c-0.573-0.458-1.171-0.688-1.794-0.688c-1.074,0-1.901,0.328-2.482,0.983c-0.58,0.655-0.87,1.595-0.87,2.82
		c0,2.392,1.153,3.588,3.459,3.588c0.258,0,0.575-0.077,0.95-0.231c0.377-0.154,0.622-0.31,0.736-0.467V199.59z"/>
	<path style="fill:#F2F9FC;" d="M736.044,202.565c0-1.754,0.507-3.183,1.521-4.286c1.013-1.102,2.351-1.654,4.012-1.654
		c1.747,0,3.104,0.53,4.071,1.59c0.967,1.06,1.45,2.51,1.45,4.351c0,1.833-0.492,3.291-1.477,4.372
		c-0.985,1.081-2.333,1.622-4.045,1.622c-1.747,0-3.107-0.546-4.076-1.638C736.529,205.83,736.044,204.377,736.044,202.565z
		 M738.837,202.565c0,2.535,0.913,3.803,2.739,3.803c0.838,0,1.502-0.329,1.992-0.988c0.491-0.659,0.736-1.597,0.736-2.814
		c0-2.499-0.909-3.749-2.729-3.749c-0.838,0-1.504,0.33-1.998,0.988C739.084,200.464,738.837,201.384,738.837,202.565z"/>
	<path style="fill:#F2F9FC;" d="M749.708,192.554l2.686-0.645v12.934c0,1.418,0.423,2.263,1.268,2.535
		c-0.415,0.788-1.124,1.182-2.127,1.182c-1.218,0-1.826-0.845-1.826-2.535V192.554z"/>
	<path style="fill:#F2F9FC;" d="M754.982,202.565c0-1.754,0.507-3.183,1.521-4.286c1.013-1.102,2.351-1.654,4.012-1.654
		c1.747,0,3.104,0.53,4.071,1.59c0.967,1.06,1.45,2.51,1.45,4.351c0,1.833-0.492,3.291-1.477,4.372
		c-0.985,1.081-2.333,1.622-4.045,1.622c-1.747,0-3.106-0.546-4.076-1.638C755.468,205.83,754.982,204.377,754.982,202.565z
		 M757.775,202.565c0,2.535,0.913,3.803,2.739,3.803c0.838,0,1.502-0.329,1.992-0.988c0.491-0.659,0.736-1.597,0.736-2.814
		c0-2.499-0.909-3.749-2.729-3.749c-0.838,0-1.504,0.33-1.998,0.988C758.022,200.464,757.775,201.384,757.775,202.565z"/>
	<path style="fill:#F2F9FC;" d="M774.834,199.343c-0.479-0.315-1.006-0.473-1.579-0.473c-0.623,0-1.177,0.283-1.659,0.849
		c-0.484,0.566-0.726,1.257-0.726,2.073v6.553h-2.685V196.84h2.685v1.053c0.752-0.845,1.751-1.268,2.997-1.268
		c0.917,0,1.618,0.14,2.105,0.419L774.834,199.343z"/>
	<path style="fill:#F2F9FC;" d="M783.503,207.604l0.956-2.138c0.802,0.638,1.708,0.956,2.718,0.956c1.046,0,1.568-0.372,1.568-1.117
		c0-0.437-0.157-0.795-0.473-1.074c-0.315-0.279-0.928-0.608-1.837-0.988c-1.983-0.823-2.975-1.977-2.975-3.459
		c0-0.995,0.38-1.771,1.139-2.326c0.759-0.555,1.729-0.833,2.911-0.833c1.196,0,2.32,0.269,3.373,0.806l-0.773,2.084
		c-0.587-0.501-1.403-0.752-2.449-0.752c-0.938,0-1.407,0.373-1.407,1.117c0,0.294,0.154,0.559,0.462,0.795
		c0.308,0.236,0.967,0.553,1.977,0.951c1.01,0.397,1.736,0.879,2.181,1.445c0.444,0.566,0.666,1.25,0.666,2.052
		c0,1.067-0.396,1.907-1.187,2.519c-0.792,0.612-1.868,0.919-3.229,0.919c-0.767,0-1.381-0.063-1.842-0.188
		C784.818,208.247,784.227,207.99,783.503,207.604z"/>
	<path style="fill:#F2F9FC;" d="M794.406,208.345v-9.303h-1.472v-2.202h4.189v11.505H794.406z M795.792,192.382
		c0.43,0,0.797,0.152,1.101,0.457c0.305,0.305,0.457,0.671,0.457,1.101c0,0.43-0.152,0.797-0.457,1.101
		c-0.304,0.305-0.671,0.457-1.101,0.457s-0.797-0.152-1.101-0.457c-0.305-0.304-0.457-0.671-0.457-1.101
		c0-0.43,0.152-0.796,0.457-1.101C794.995,192.534,795.362,192.382,795.792,192.382z"/>
	<path style="fill:#F2F9FC;" d="M800.658,198.999h-1.332v-2.159h1.332v-2.342l2.686-0.988v3.33h3.158v2.159h-3.158v5.038
		c0,0.824,0.129,1.406,0.387,1.746c0.258,0.34,0.709,0.51,1.354,0.51c0.644,0,1.246-0.175,1.805-0.526v2.471
		c-0.623,0.215-1.511,0.322-2.664,0.322c-1.146,0-2.026-0.324-2.643-0.972c-0.616-0.648-0.924-1.57-0.924-2.766V198.999z"/>
	<path style="fill:#F2F9FC;" d="M822.003,207.195c-0.243,0.401-0.668,0.729-1.272,0.983c-0.605,0.254-1.237,0.381-1.896,0.381
		c-1.239,0-2.213-0.31-2.922-0.929c-0.709-0.619-1.064-1.499-1.064-2.637c0-1.332,0.499-2.374,1.499-3.126
		c0.998-0.752,2.418-1.128,4.259-1.128c0.315,0,0.688,0.054,1.117,0.161c0-1.354-0.855-2.03-2.567-2.03
		c-1.01,0-1.854,0.169-2.535,0.505l-0.58-2.084c0.924-0.444,2.023-0.666,3.298-0.666c1.755,0,3.04,0.399,3.856,1.198
		c0.816,0.799,1.225,2.311,1.225,4.538v2.46c0,1.533,0.308,2.496,0.924,2.89c-0.222,0.387-0.469,0.625-0.741,0.714
		c-0.272,0.089-0.584,0.134-0.934,0.134c-0.387,0-0.734-0.144-1.042-0.43S822.11,207.532,822.003,207.195z M821.745,202.931
		c-0.458-0.093-0.802-0.14-1.031-0.14c-2.12,0-3.18,0.695-3.18,2.084c0,1.031,0.598,1.547,1.794,1.547
		c1.611,0,2.417-0.806,2.417-2.417V202.931z"/>
	<path style="fill:#F2F9FC;" d="M840.641,208.345v-7.208c0-1.511-0.677-2.267-2.03-2.267c-0.401,0-0.788,0.118-1.16,0.354
		c-0.372,0.236-0.634,0.509-0.784,0.816v8.304h-2.686v-7.627c0-0.566-0.176-1.015-0.526-1.348c-0.351-0.333-0.845-0.499-1.482-0.499
		c-0.337,0-0.703,0.126-1.102,0.376c-0.396,0.251-0.685,0.526-0.864,0.827v8.271h-2.686V196.84h1.848l0.548,1.01
		c0.745-0.816,1.708-1.225,2.89-1.225c1.525,0,2.675,0.415,3.448,1.246c0.337-0.379,0.806-0.682,1.407-0.908
		c0.602-0.226,1.203-0.338,1.805-0.338c1.282,0,2.279,0.367,2.991,1.101c0.713,0.734,1.069,1.742,1.069,3.024v7.595H840.641z"/>
	<path style="fill:#F2F9FC;" d="M856.496,203.414h-8.218c0.05,0.917,0.365,1.629,0.945,2.138c0.58,0.509,1.36,0.763,2.342,0.763
		c1.225,0,2.155-0.318,2.793-0.956l1.042,2.052c-0.945,0.767-2.357,1.149-4.232,1.149c-1.755,0-3.142-0.514-4.163-1.542
		c-1.02-1.027-1.53-2.462-1.53-4.302c0-1.812,0.561-3.28,1.681-4.404c1.121-1.124,2.466-1.686,4.034-1.686
		c1.669,0,3.008,0.498,4.018,1.493c1.01,0.996,1.515,2.263,1.515,3.803C856.722,202.251,856.646,202.748,856.496,203.414z
		 M848.375,201.395h5.65c-0.187-1.683-1.117-2.524-2.793-2.524C849.7,198.87,848.747,199.712,848.375,201.395z"/>
	<path style="fill:#F2F9FC;" d="M859.278,198.999h-1.332v-2.159h1.332v-2.342l2.686-0.988v3.33h3.158v2.159h-3.158v5.038
		c0,0.824,0.129,1.406,0.387,1.746c0.258,0.34,0.709,0.51,1.354,0.51c0.644,0,1.246-0.175,1.805-0.526v2.471
		c-0.623,0.215-1.511,0.322-2.664,0.322c-1.146,0-2.026-0.324-2.643-0.972c-0.616-0.648-0.924-1.57-0.924-2.766V198.999z"/>
	<path style="fill:#F2F9FC;" d="M868.474,212.362l-0.913-1.171c1.311-0.981,1.966-1.751,1.966-2.31c0-0.215-0.075-0.426-0.226-0.634
		c-0.681-0.329-1.021-0.791-1.021-1.386c0-0.43,0.179-0.786,0.537-1.069c0.358-0.283,0.802-0.424,1.332-0.424
		c0.494,0,0.926,0.188,1.294,0.564c0.369,0.376,0.554,0.811,0.554,1.305c0,0.91-0.213,1.738-0.64,2.487
		C870.932,210.473,869.971,211.352,868.474,212.362z"/>
	<path style="fill:#F2F9FC;" d="M891.322,197.753l-1.149,2.009c-0.63-0.594-1.476-0.892-2.535-0.892
		c-1.017,0-1.82,0.338-2.412,1.015c-0.59,0.677-0.886,1.613-0.886,2.809c0,2.414,1.149,3.62,3.448,3.62
		c0.995,0,1.873-0.329,2.632-0.988l0.988,2.116c-0.78,0.487-1.463,0.795-2.046,0.924c-0.584,0.129-1.273,0.193-2.068,0.193
		c-1.776,0-3.178-0.517-4.205-1.552c-1.028-1.035-1.542-2.472-1.542-4.313c0-1.812,0.563-3.276,1.687-4.394
		c1.124-1.117,2.657-1.676,4.598-1.676C889.17,196.625,890.334,197.001,891.322,197.753z"/>
	<path style="fill:#F2F9FC;" d="M892.805,202.565c0-1.754,0.507-3.183,1.521-4.286c1.013-1.102,2.351-1.654,4.012-1.654
		c1.747,0,3.105,0.53,4.071,1.59c0.967,1.06,1.45,2.51,1.45,4.351c0,1.833-0.492,3.291-1.477,4.372
		c-0.985,1.081-2.333,1.622-4.045,1.622c-1.747,0-3.106-0.546-4.076-1.638C893.29,205.83,892.805,204.377,892.805,202.565z
		 M895.598,202.565c0,2.535,0.913,3.803,2.739,3.803c0.838,0,1.502-0.329,1.992-0.988c0.491-0.659,0.736-1.597,0.736-2.814
		c0-2.499-0.909-3.749-2.729-3.749c-0.838,0-1.504,0.33-1.998,0.988C895.845,200.464,895.598,201.384,895.598,202.565z"/>
	<path style="fill:#F2F9FC;" d="M913.408,208.345v-6.649c0-0.981-0.188-1.697-0.564-2.148c-0.375-0.451-0.989-0.677-1.842-0.677
		c-0.394,0-0.815,0.111-1.262,0.333c-0.448,0.222-0.797,0.498-1.048,0.827v8.314h-2.686V196.84h1.934l0.494,1.074
		c0.73-0.859,1.809-1.289,3.233-1.289c1.368,0,2.447,0.41,3.238,1.23c0.792,0.82,1.188,1.964,1.188,3.432v7.058H913.408z"/>
	<path style="fill:#F2F9FC;" d="M918.285,207.604l0.956-2.138c0.802,0.638,1.708,0.956,2.718,0.956c1.046,0,1.568-0.372,1.568-1.117
		c0-0.437-0.157-0.795-0.473-1.074c-0.315-0.279-0.928-0.608-1.837-0.988c-1.983-0.823-2.976-1.977-2.976-3.459
		c0-0.995,0.38-1.771,1.139-2.326c0.759-0.555,1.729-0.833,2.911-0.833c1.196,0,2.32,0.269,3.373,0.806l-0.773,2.084
		c-0.587-0.501-1.403-0.752-2.449-0.752c-0.938,0-1.407,0.373-1.407,1.117c0,0.294,0.154,0.559,0.462,0.795s0.967,0.553,1.977,0.951
		c1.01,0.397,1.736,0.879,2.181,1.445c0.444,0.566,0.666,1.25,0.666,2.052c0,1.067-0.395,1.907-1.186,2.519
		c-0.792,0.612-1.868,0.919-3.229,0.919c-0.767,0-1.381-0.063-1.842-0.188C919.601,208.247,919.009,207.99,918.285,207.604z"/>
	<path style="fill:#F2F9FC;" d="M938.738,203.414h-8.218c0.05,0.917,0.365,1.629,0.945,2.138c0.58,0.509,1.36,0.763,2.342,0.763
		c1.225,0,2.155-0.318,2.793-0.956l1.042,2.052c-0.945,0.767-2.357,1.149-4.232,1.149c-1.755,0-3.142-0.514-4.163-1.542
		c-1.02-1.027-1.53-2.462-1.53-4.302c0-1.812,0.56-3.28,1.681-4.404c1.121-1.124,2.466-1.686,4.034-1.686
		c1.669,0,3.008,0.498,4.018,1.493c1.01,0.996,1.515,2.263,1.515,3.803C938.964,202.251,938.889,202.748,938.738,203.414z
		 M930.617,201.395h5.65c-0.187-1.683-1.117-2.524-2.793-2.524C931.942,198.87,930.989,199.712,930.617,201.395z"/>
	<path style="fill:#F2F9FC;" d="M950.136,197.753l-1.149,2.009c-0.63-0.594-1.476-0.892-2.535-0.892
		c-1.017,0-1.82,0.338-2.412,1.015c-0.59,0.677-0.886,1.613-0.886,2.809c0,2.414,1.149,3.62,3.448,3.62
		c0.995,0,1.873-0.329,2.632-0.988l0.988,2.116c-0.78,0.487-1.463,0.795-2.046,0.924c-0.584,0.129-1.273,0.193-2.068,0.193
		c-1.776,0-3.178-0.517-4.205-1.552c-1.028-1.035-1.542-2.472-1.542-4.313c0-1.812,0.563-3.276,1.687-4.394s2.657-1.676,4.598-1.676
		C947.983,196.625,949.147,197.001,950.136,197.753z"/>
	<path style="fill:#F2F9FC;" d="M952.778,198.999h-1.332v-2.159h1.332v-2.342l2.686-0.988v3.33h3.158v2.159h-3.158v5.038
		c0,0.824,0.129,1.406,0.387,1.746c0.258,0.34,0.709,0.51,1.354,0.51c0.644,0,1.246-0.175,1.805-0.526v2.471
		c-0.623,0.215-1.511,0.322-2.664,0.322c-1.146,0-2.026-0.324-2.643-0.972c-0.616-0.648-0.924-1.57-0.924-2.766V198.999z"/>
	<path style="fill:#F2F9FC;" d="M971.362,203.414h-8.218c0.05,0.917,0.365,1.629,0.945,2.138c0.58,0.509,1.36,0.763,2.342,0.763
		c1.225,0,2.155-0.318,2.793-0.956l1.042,2.052c-0.945,0.767-2.356,1.149-4.232,1.149c-1.755,0-3.142-0.514-4.163-1.542
		c-1.02-1.027-1.53-2.462-1.53-4.302c0-1.812,0.561-3.28,1.681-4.404c1.121-1.124,2.466-1.686,4.034-1.686
		c1.669,0,3.008,0.498,4.018,1.493c1.01,0.996,1.515,2.263,1.515,3.803C971.588,202.251,971.513,202.748,971.362,203.414z
		 M963.241,201.395h5.65c-0.187-1.683-1.117-2.524-2.793-2.524C964.566,198.87,963.613,199.712,963.241,201.395z"/>
	<path style="fill:#F2F9FC;" d="M974.144,198.999h-1.332v-2.159h1.332v-2.342l2.686-0.988v3.33h3.158v2.159h-3.158v5.038
		c0,0.824,0.129,1.406,0.387,1.746c0.258,0.34,0.709,0.51,1.353,0.51c0.645,0,1.246-0.175,1.805-0.526v2.471
		c-0.623,0.215-1.511,0.322-2.664,0.322c-1.146,0-2.026-0.324-2.643-0.972c-0.616-0.648-0.924-1.57-0.924-2.766V198.999z"/>
	<path style="fill:#F2F9FC;" d="M989.871,208.355v-0.967c-0.38,0.322-0.902,0.598-1.568,0.827c-0.666,0.229-1.278,0.344-1.837,0.344
		c-2.671,0-4.007-1.418-4.007-4.254v-7.466h2.685v7.262c0,1.476,0.662,2.213,1.987,2.213c0.608,0,1.175-0.157,1.697-0.473
		c0.522-0.315,0.87-0.68,1.042-1.096v-7.906h2.685v11.516H989.871z"/>
	<path style="fill:#F2F9FC;" d="M1002.106,199.343c-0.479-0.315-1.006-0.473-1.579-0.473c-0.623,0-1.177,0.283-1.659,0.849
		c-0.484,0.566-0.726,1.257-0.726,2.073v6.553h-2.686V196.84h2.686v1.053c0.752-0.845,1.751-1.268,2.997-1.268
		c0.917,0,1.618,0.14,2.106,0.419L1002.106,199.343z"/>
	<path style="fill:#F2F9FC;" d="M1017.887,207.195c-0.243,0.401-0.668,0.729-1.272,0.983c-0.606,0.254-1.237,0.381-1.897,0.381
		c-1.239,0-2.213-0.31-2.922-0.929c-0.709-0.619-1.063-1.499-1.063-2.637c0-1.332,0.499-2.374,1.499-3.126
		c0.998-0.752,2.418-1.128,4.259-1.128c0.316,0,0.688,0.054,1.117,0.161c0-1.354-0.855-2.03-2.567-2.03
		c-1.01,0-1.854,0.169-2.535,0.505l-0.58-2.084c0.924-0.444,2.023-0.666,3.298-0.666c1.755,0,3.04,0.399,3.856,1.198
		c0.816,0.799,1.225,2.311,1.225,4.538v2.46c0,1.533,0.308,2.496,0.924,2.89c-0.222,0.387-0.469,0.625-0.741,0.714
		c-0.272,0.089-0.584,0.134-0.935,0.134c-0.387,0-0.734-0.144-1.042-0.43C1018.202,207.844,1017.994,207.532,1017.887,207.195z
		 M1017.629,202.931c-0.458-0.093-0.802-0.14-1.031-0.14c-2.12,0-3.18,0.695-3.18,2.084c0,1.031,0.598,1.547,1.794,1.547
		c1.611,0,2.417-0.806,2.417-2.417V202.931z"/>
	<path style="fill:#F2F9FC;" d="M1030.605,208.345v-0.698c-0.222,0.244-0.598,0.456-1.128,0.639
		c-0.53,0.183-1.078,0.274-1.644,0.274c-1.604,0-2.866-0.508-3.787-1.525c-0.92-1.017-1.38-2.435-1.38-4.254
		c0-1.819,0.528-3.299,1.585-4.442c1.056-1.142,2.379-1.713,3.969-1.713c0.874,0,1.669,0.179,2.385,0.537v-4.608l2.686-0.645v16.436
		H1030.605z M1030.605,199.59c-0.573-0.458-1.171-0.688-1.794-0.688c-1.074,0-1.901,0.328-2.481,0.983
		c-0.58,0.655-0.87,1.595-0.87,2.82c0,2.392,1.153,3.588,3.459,3.588c0.258,0,0.575-0.077,0.95-0.231
		c0.377-0.154,0.622-0.31,0.736-0.467V199.59z"/>
	<path style="fill:#F2F9FC;" d="M1036.696,208.345v-9.303h-1.472v-2.202h4.189v11.505H1036.696z M1038.082,192.382
		c0.43,0,0.797,0.152,1.101,0.457c0.305,0.305,0.457,0.671,0.457,1.101c0,0.43-0.152,0.797-0.457,1.101
		c-0.304,0.305-0.671,0.457-1.101,0.457s-0.797-0.152-1.101-0.457c-0.305-0.304-0.457-0.671-0.457-1.101
		c0-0.43,0.152-0.796,0.457-1.101C1037.285,192.534,1037.652,192.382,1038.082,192.382z"/>
	<path style="fill:#F2F9FC;" d="M1045.011,208.055v4.802h-2.686V196.84h2.686v0.773c0.673-0.659,1.5-0.988,2.481-0.988
		c3.667,0,5.5,2.02,5.5,6.059c0,1.884-0.507,3.334-1.52,4.351c-1.014,1.017-2.397,1.525-4.152,1.525
		C1046.476,208.56,1045.705,208.391,1045.011,208.055z M1045.011,199.654v6.048c0.487,0.394,1.057,0.591,1.708,0.591
		c1.239,0,2.129-0.295,2.67-0.886c0.54-0.591,0.811-1.523,0.811-2.798c0-1.36-0.269-2.318-0.806-2.874
		c-0.537-0.555-1.425-0.833-2.664-0.833C1046.085,198.902,1045.512,199.153,1045.011,199.654z"/>
	<path style="fill:#F2F9FC;" d="M1056.075,208.345v-9.303h-1.472v-2.202h4.189v11.505H1056.075z M1057.461,192.382
		c0.43,0,0.797,0.152,1.101,0.457c0.305,0.305,0.457,0.671,0.457,1.101c0,0.43-0.152,0.797-0.457,1.101
		c-0.304,0.305-0.671,0.457-1.101,0.457s-0.797-0.152-1.101-0.457c-0.305-0.304-0.457-0.671-0.457-1.101
		c0-0.43,0.152-0.796,0.457-1.101C1056.664,192.534,1057.031,192.382,1057.461,192.382z"/>
	<path style="fill:#F2F9FC;" d="M1061.21,207.604l0.956-2.138c0.802,0.638,1.708,0.956,2.718,0.956c1.046,0,1.568-0.372,1.568-1.117
		c0-0.437-0.157-0.795-0.473-1.074s-0.928-0.608-1.837-0.988c-1.983-0.823-2.976-1.977-2.976-3.459c0-0.995,0.38-1.771,1.139-2.326
		c0.759-0.555,1.729-0.833,2.911-0.833c1.196,0,2.32,0.269,3.373,0.806l-0.773,2.084c-0.587-0.501-1.403-0.752-2.449-0.752
		c-0.938,0-1.407,0.373-1.407,1.117c0,0.294,0.154,0.559,0.462,0.795s0.967,0.553,1.977,0.951c1.01,0.397,1.736,0.879,2.181,1.445
		c0.444,0.566,0.666,1.25,0.666,2.052c0,1.067-0.396,1.907-1.187,2.519c-0.792,0.612-1.868,0.919-3.229,0.919
		c-0.767,0-1.381-0.063-1.842-0.188C1062.525,208.247,1061.934,207.99,1061.21,207.604z"/>
	<path style="fill:#F2F9FC;" d="M1080.417,197.753l-1.149,2.009c-0.63-0.594-1.476-0.892-2.535-0.892
		c-1.017,0-1.82,0.338-2.412,1.015c-0.59,0.677-0.886,1.613-0.886,2.809c0,2.414,1.149,3.62,3.448,3.62
		c0.995,0,1.873-0.329,2.632-0.988l0.988,2.116c-0.78,0.487-1.463,0.795-2.046,0.924c-0.584,0.129-1.273,0.193-2.068,0.193
		c-1.776,0-3.178-0.517-4.205-1.552c-1.028-1.035-1.542-2.472-1.542-4.313c0-1.812,0.563-3.276,1.687-4.394s2.657-1.676,4.598-1.676
		C1078.265,196.625,1079.429,197.001,1080.417,197.753z"/>
	<path style="fill:#F2F9FC;" d="M1083.371,208.345v-9.303h-1.472v-2.202h4.189v11.505H1083.371z M1084.757,192.382
		c0.43,0,0.797,0.152,1.101,0.457c0.305,0.305,0.457,0.671,0.457,1.101c0,0.43-0.152,0.797-0.457,1.101
		c-0.304,0.305-0.671,0.457-1.101,0.457s-0.797-0.152-1.101-0.457c-0.305-0.304-0.457-0.671-0.457-1.101
		c0-0.43,0.152-0.796,0.457-1.101C1083.96,192.534,1084.327,192.382,1084.757,192.382z"/>
	<path style="fill:#F2F9FC;" d="M1096.616,208.345v-6.649c0-0.981-0.188-1.697-0.564-2.148c-0.375-0.451-0.989-0.677-1.842-0.677
		c-0.394,0-0.814,0.111-1.262,0.333c-0.448,0.222-0.797,0.498-1.048,0.827v8.314h-2.686V196.84h1.934l0.494,1.074
		c0.73-0.859,1.809-1.289,3.233-1.289c1.368,0,2.447,0.41,3.238,1.23c0.792,0.82,1.188,1.964,1.188,3.432v7.058H1096.616z"/>
	<path style="fill:#F2F9FC;" d="M1101.343,211.299l1.697-2.095c0.938,0.859,1.983,1.289,3.137,1.289
		c0.773,0,1.411-0.115,1.912-0.344c0.501-0.229,0.752-0.544,0.752-0.945c0-0.681-0.555-1.021-1.665-1.021
		c-0.301,0-0.748,0.036-1.343,0.107s-1.042,0.107-1.343,0.107c-1.848,0-2.771-0.662-2.771-1.987c0-0.379,0.154-0.752,0.462-1.117
		c0.308-0.365,0.666-0.634,1.074-0.806c-1.311-0.852-1.966-2.059-1.966-3.62c0-1.231,0.451-2.25,1.354-3.056
		c0.902-0.806,2.013-1.208,3.33-1.208c1.031,0,1.895,0.193,2.589,0.58l1.053-1.225l1.858,1.686l-1.278,0.935
		c0.444,0.673,0.666,1.468,0.666,2.385c0,1.311-0.399,2.358-1.198,3.142c-0.798,0.784-1.806,1.176-3.023,1.176
		c-0.193,0-0.451-0.018-0.773-0.054l-0.44-0.065c-0.05,0-0.241,0.077-0.575,0.231c-0.332,0.154-0.499,0.314-0.499,0.478
		c0,0.287,0.247,0.43,0.741,0.43c0.222,0,0.595-0.054,1.117-0.161c0.522-0.107,0.971-0.161,1.343-0.161
		c2.614,0,3.921,1.049,3.921,3.148c0,1.16-0.522,2.071-1.568,2.734c-1.046,0.662-2.306,0.994-3.781,0.994
		C1104.361,212.856,1102.768,212.337,1101.343,211.299z M1104.028,200.879c0,0.681,0.188,1.227,0.563,1.638
		c0.377,0.412,0.883,0.618,1.521,0.618s1.128-0.2,1.472-0.602c0.344-0.401,0.516-0.952,0.516-1.654c0-0.58-0.185-1.07-0.553-1.472
		c-0.369-0.401-0.848-0.602-1.435-0.602c-0.616,0-1.117,0.193-1.504,0.58C1104.222,199.773,1104.028,200.27,1104.028,200.879z"/>
	<path style="fill:#F2F9FC;" d="M1130.143,203.414h-8.218c0.05,0.917,0.365,1.629,0.945,2.138c0.58,0.509,1.36,0.763,2.342,0.763
		c1.225,0,2.155-0.318,2.793-0.956l1.042,2.052c-0.945,0.767-2.356,1.149-4.232,1.149c-1.755,0-3.142-0.514-4.163-1.542
		c-1.02-1.027-1.53-2.462-1.53-4.302c0-1.812,0.561-3.28,1.681-4.404c1.121-1.124,2.466-1.686,4.034-1.686
		c1.669,0,3.008,0.498,4.018,1.493c1.01,0.996,1.515,2.263,1.515,3.803C1130.368,202.251,1130.293,202.748,1130.143,203.414z
		 M1122.021,201.395h5.65c-0.187-1.683-1.117-2.524-2.793-2.524C1123.347,198.87,1122.394,199.712,1122.021,201.395z"/>
	<path style="fill:#F2F9FC;" d="M1132.979,192.554l2.686-0.645v12.934c0,1.418,0.423,2.263,1.268,2.535
		c-0.415,0.788-1.124,1.182-2.127,1.182c-1.218,0-1.826-0.845-1.826-2.535V192.554z"/>
	<path style="fill:#F2F9FC;" d="M1139.725,208.345v-9.303h-1.472v-2.202h4.189v11.505H1139.725z M1141.11,192.382
		c0.43,0,0.797,0.152,1.101,0.457c0.305,0.305,0.457,0.671,0.457,1.101c0,0.43-0.152,0.797-0.457,1.101
		c-0.304,0.305-0.671,0.457-1.101,0.457s-0.797-0.152-1.101-0.457c-0.305-0.304-0.457-0.671-0.457-1.101
		c0-0.43,0.152-0.796,0.457-1.101C1140.313,192.534,1140.681,192.382,1141.11,192.382z"/>
	<path style="fill:#F2F9FC;" d="M1145.977,198.999h-1.332v-2.159h1.332v-2.342l2.686-0.988v3.33h3.158v2.159h-3.158v5.038
		c0,0.824,0.129,1.406,0.387,1.746c0.258,0.34,0.709,0.51,1.354,0.51s1.246-0.175,1.805-0.526v2.471
		c-0.623,0.215-1.511,0.322-2.664,0.322c-1.146,0-2.026-0.324-2.643-0.972c-0.616-0.648-0.924-1.57-0.924-2.766V198.999z"/>
	<path style="fill:#F2F9FC;" d="M1154.71,206.938c0-0.537,0.188-0.994,0.564-1.37c0.375-0.376,0.832-0.564,1.369-0.564
		s0.994,0.188,1.369,0.564c0.377,0.376,0.564,0.833,0.564,1.37s-0.188,0.996-0.564,1.375c-0.375,0.379-0.832,0.569-1.369,0.569
		s-0.994-0.19-1.369-0.569C1154.897,207.933,1154.71,207.475,1154.71,206.938z"/>
	<path style="fill:#F2F9FC;" d="M599.285,234.755h-2.707l-1.633-8.486l-3.169,8.691h-0.999l-3.169-8.691l-1.697,8.486h-2.696
		l3.169-15.748h1.482l3.405,10.603l3.33-10.603h1.472L599.285,234.755z"/>
	<path style="fill:#F2F9FC;" d="M607.245,233.595c-0.243,0.401-0.668,0.729-1.272,0.983c-0.605,0.254-1.237,0.381-1.896,0.381
		c-1.239,0-2.213-0.31-2.922-0.929c-0.709-0.619-1.064-1.499-1.064-2.637c0-1.332,0.499-2.374,1.499-3.126
		c0.998-0.752,2.418-1.128,4.259-1.128c0.315,0,0.688,0.054,1.117,0.161c0-1.354-0.855-2.03-2.567-2.03
		c-1.01,0-1.854,0.169-2.535,0.505l-0.58-2.084c0.924-0.444,2.023-0.666,3.298-0.666c1.755,0,3.04,0.399,3.856,1.198
		c0.816,0.799,1.225,2.311,1.225,4.538v2.46c0,1.533,0.308,2.496,0.924,2.89c-0.222,0.387-0.469,0.625-0.741,0.714
		c-0.272,0.089-0.584,0.134-0.935,0.134c-0.387,0-0.734-0.144-1.042-0.43C607.56,234.244,607.352,233.932,607.245,233.595z
		 M606.987,229.331c-0.458-0.093-0.802-0.14-1.031-0.14c-2.12,0-3.18,0.695-3.18,2.084c0,1.031,0.598,1.547,1.794,1.547
		c1.611,0,2.417-0.806,2.417-2.417V229.331z"/>
	<path style="fill:#F2F9FC;" d="M622.832,229.814h-8.218c0.05,0.917,0.365,1.629,0.945,2.138c0.58,0.509,1.36,0.763,2.342,0.763
		c1.225,0,2.155-0.318,2.793-0.956l1.042,2.052c-0.945,0.767-2.356,1.149-4.232,1.149c-1.755,0-3.142-0.514-4.163-1.542
		c-1.019-1.027-1.53-2.462-1.53-4.302c0-1.812,0.561-3.28,1.681-4.404c1.121-1.124,2.466-1.686,4.034-1.686
		c1.669,0,3.008,0.498,4.018,1.493c1.01,0.996,1.515,2.263,1.515,3.803C623.058,228.65,622.982,229.148,622.832,229.814z
		 M614.711,227.794h5.65c-0.186-1.683-1.117-2.524-2.793-2.524C616.036,225.27,615.083,226.112,614.711,227.794z"/>
	<path style="fill:#F2F9FC;" d="M634.229,224.153l-1.149,2.009c-0.63-0.594-1.476-0.892-2.535-0.892
		c-1.017,0-1.82,0.338-2.412,1.015c-0.59,0.677-0.886,1.613-0.886,2.809c0,2.414,1.149,3.62,3.448,3.62
		c0.995,0,1.873-0.329,2.632-0.988l0.988,2.116c-0.78,0.487-1.463,0.795-2.046,0.924c-0.584,0.129-1.273,0.193-2.068,0.193
		c-1.776,0-3.178-0.517-4.205-1.552c-1.028-1.035-1.542-2.472-1.542-4.313c0-1.811,0.563-3.276,1.686-4.393
		c1.124-1.117,2.657-1.676,4.598-1.676C632.077,223.025,633.241,223.401,634.229,224.153z"/>
	<path style="fill:#F2F9FC;" d="M646.733,229.814h-8.218c0.05,0.917,0.365,1.629,0.945,2.138c0.58,0.509,1.36,0.763,2.342,0.763
		c1.225,0,2.155-0.318,2.793-0.956l1.042,2.052c-0.945,0.767-2.356,1.149-4.232,1.149c-1.755,0-3.142-0.514-4.163-1.542
		c-1.02-1.027-1.53-2.462-1.53-4.302c0-1.812,0.561-3.28,1.681-4.404c1.121-1.124,2.466-1.686,4.034-1.686
		c1.669,0,3.008,0.498,4.018,1.493c1.01,0.996,1.515,2.263,1.515,3.803C646.959,228.65,646.884,229.148,646.733,229.814z
		 M638.612,227.794h5.65c-0.187-1.683-1.117-2.524-2.793-2.524C639.938,225.27,638.984,226.112,638.612,227.794z"/>
	<path style="fill:#F2F9FC;" d="M656.509,234.745v-6.649c0-0.981-0.188-1.697-0.565-2.148c-0.375-0.451-0.989-0.677-1.842-0.677
		c-0.393,0-0.814,0.111-1.262,0.333c-0.448,0.222-0.797,0.498-1.048,0.827v8.314h-2.686V223.24h1.934l0.494,1.074
		c0.73-0.859,1.809-1.289,3.233-1.289c1.368,0,2.447,0.41,3.238,1.23c0.792,0.82,1.188,1.964,1.188,3.432v7.058H656.509z"/>
	<path style="fill:#F2F9FC;" d="M668.497,233.595c-0.243,0.401-0.668,0.729-1.272,0.983c-0.606,0.254-1.237,0.381-1.897,0.381
		c-1.239,0-2.213-0.31-2.922-0.929c-0.709-0.619-1.064-1.499-1.064-2.637c0-1.332,0.499-2.374,1.499-3.126
		c0.998-0.752,2.418-1.128,4.259-1.128c0.315,0,0.688,0.054,1.117,0.161c0-1.354-0.855-2.03-2.567-2.03
		c-1.01,0-1.854,0.169-2.535,0.505l-0.58-2.084c0.924-0.444,2.023-0.666,3.298-0.666c1.755,0,3.04,0.399,3.856,1.198
		c0.816,0.799,1.225,2.311,1.225,4.538v2.46c0,1.533,0.308,2.496,0.924,2.89c-0.222,0.387-0.469,0.625-0.741,0.714
		c-0.273,0.089-0.584,0.134-0.935,0.134c-0.387,0-0.734-0.144-1.042-0.43C668.813,234.244,668.604,233.932,668.497,233.595z
		 M668.239,229.331c-0.458-0.093-0.802-0.14-1.031-0.14c-2.12,0-3.18,0.695-3.18,2.084c0,1.031,0.598,1.547,1.794,1.547
		c1.611,0,2.417-0.806,2.417-2.417V229.331z"/>
	<path style="fill:#F2F9FC;" d="M673.105,234.003l0.956-2.138c0.802,0.638,1.708,0.956,2.718,0.956c1.046,0,1.568-0.372,1.568-1.117
		c0-0.437-0.157-0.795-0.473-1.074c-0.315-0.279-0.928-0.608-1.837-0.988c-1.983-0.823-2.976-1.977-2.976-3.459
		c0-0.995,0.38-1.771,1.139-2.326c0.759-0.555,1.729-0.833,2.911-0.833c1.196,0,2.32,0.269,3.373,0.806l-0.774,2.084
		c-0.587-0.501-1.403-0.752-2.449-0.752c-0.939,0-1.407,0.373-1.407,1.117c0,0.294,0.154,0.559,0.462,0.795
		c0.308,0.236,0.967,0.553,1.977,0.951c1.01,0.397,1.736,0.879,2.181,1.445c0.444,0.566,0.666,1.25,0.666,2.052
		c0,1.067-0.396,1.907-1.186,2.519c-0.792,0.612-1.868,0.919-3.229,0.919c-0.767,0-1.381-0.063-1.842-0.188
		C674.421,234.646,673.829,234.39,673.105,234.003z"/>
	<path style="fill:#F2F9FC;" d="M697.394,239.256v-4.834c-0.645,0.358-1.532,0.537-2.664,0.537c-1.676,0-2.986-0.51-3.932-1.531
		c-0.945-1.02-1.418-2.461-1.418-4.324c0-1.854,0.542-3.332,1.628-4.431c1.084-1.099,2.472-1.649,4.162-1.649
		c1.003,0,1.912,0.301,2.729,0.902l0.44-0.688h1.74v16.017H697.394z M697.394,225.968c-0.479-0.444-1.106-0.666-1.88-0.666
		c-1.046,0-1.863,0.346-2.455,1.037c-0.59,0.691-0.886,1.613-0.886,2.766c0,2.392,1.085,3.588,3.255,3.588
		c0.795,0,1.45-0.186,1.966-0.559V225.968z"/>
	<path style="fill:#F2F9FC;" d="M710.177,234.755v-0.967c-0.38,0.322-0.902,0.598-1.568,0.827c-0.666,0.229-1.278,0.344-1.837,0.344
		c-2.671,0-4.007-1.418-4.007-4.254v-7.466h2.686v7.262c0,1.476,0.662,2.213,1.987,2.213c0.608,0,1.175-0.157,1.697-0.473
		c0.522-0.315,0.87-0.68,1.042-1.096v-7.906h2.686v11.516H710.177z"/>
	<path style="fill:#F2F9FC;" d="M716.482,234.745v-9.303h-1.472v-2.202h4.19v11.505H716.482z M717.868,218.782
		c0.43,0,0.797,0.152,1.101,0.457c0.305,0.305,0.457,0.671,0.457,1.101c0,0.43-0.152,0.797-0.457,1.101
		c-0.304,0.305-0.671,0.457-1.101,0.457s-0.797-0.152-1.101-0.457c-0.305-0.304-0.457-0.671-0.457-1.101
		c0-0.43,0.152-0.796,0.457-1.101C717.071,218.934,717.438,218.782,717.868,218.782z"/>
	<path style="fill:#F2F9FC;" d="M721.617,234.003l0.956-2.138c0.802,0.638,1.708,0.956,2.718,0.956c1.046,0,1.568-0.372,1.568-1.117
		c0-0.437-0.157-0.795-0.473-1.074c-0.315-0.279-0.928-0.608-1.837-0.988c-1.983-0.823-2.976-1.977-2.976-3.459
		c0-0.995,0.38-1.771,1.139-2.326c0.759-0.555,1.729-0.833,2.911-0.833c1.196,0,2.32,0.269,3.373,0.806l-0.773,2.084
		c-0.587-0.501-1.403-0.752-2.449-0.752c-0.938,0-1.407,0.373-1.407,1.117c0,0.294,0.154,0.559,0.462,0.795
		c0.308,0.236,0.967,0.553,1.977,0.951c1.01,0.397,1.736,0.879,2.181,1.445c0.444,0.566,0.666,1.25,0.666,2.052
		c0,1.067-0.396,1.907-1.187,2.519c-0.792,0.612-1.868,0.919-3.228,0.919c-0.767,0-1.381-0.063-1.842-0.188
		C722.933,234.646,722.341,234.39,721.617,234.003z"/>
	<path style="fill:#F2F9FC;" d="M748.698,229.814h-8.218c0.05,0.917,0.365,1.629,0.945,2.138c0.58,0.509,1.36,0.763,2.342,0.763
		c1.225,0,2.155-0.318,2.793-0.956l1.042,2.052c-0.945,0.767-2.356,1.149-4.232,1.149c-1.755,0-3.142-0.514-4.163-1.542
		c-1.019-1.027-1.53-2.462-1.53-4.302c0-1.812,0.561-3.28,1.681-4.404c1.121-1.124,2.466-1.686,4.034-1.686
		c1.669,0,3.008,0.498,4.018,1.493c1.01,0.996,1.515,2.263,1.515,3.803C748.924,228.65,748.849,229.148,748.698,229.814z
		 M740.577,227.794h5.65c-0.186-1.683-1.117-2.524-2.793-2.524C741.902,225.27,740.949,226.112,740.577,227.794z"/>
	<path style="fill:#F2F9FC;" d="M751.534,218.954l2.685-0.645v12.934c0,1.418,0.423,2.263,1.268,2.535
		c-0.415,0.788-1.124,1.182-2.127,1.182c-1.218,0-1.826-0.845-1.826-2.535V218.954z"/>
	<path style="fill:#F2F9FC;" d="M758.28,234.745v-9.303h-1.472v-2.202h4.189v11.505H758.28z M759.666,218.782
		c0.43,0,0.797,0.152,1.101,0.457c0.305,0.305,0.457,0.671,0.457,1.101c0,0.43-0.152,0.797-0.457,1.101
		c-0.304,0.305-0.671,0.457-1.101,0.457c-0.43,0-0.797-0.152-1.101-0.457c-0.305-0.304-0.457-0.671-0.457-1.101
		c0-0.43,0.152-0.796,0.457-1.101C758.869,218.934,759.236,218.782,759.666,218.782z"/>
	<path style="fill:#F2F9FC;" d="M764.532,225.399H763.2v-2.159h1.332v-2.342l2.686-0.988v3.33h3.158v2.159h-3.158v5.038
		c0,0.824,0.129,1.406,0.387,1.746c0.258,0.34,0.709,0.51,1.354,0.51c0.644,0,1.246-0.175,1.805-0.526v2.471
		c-0.623,0.215-1.511,0.322-2.664,0.322c-1.146,0-2.026-0.324-2.643-0.972c-0.616-0.648-0.924-1.57-0.924-2.766V225.399z"/>
	<path style="fill:#F2F9FC;" d="M786.876,234.745v-0.698c-0.222,0.244-0.598,0.456-1.128,0.639c-0.53,0.183-1.078,0.274-1.643,0.274
		c-1.604,0-2.866-0.508-3.787-1.525c-0.92-1.017-1.38-2.435-1.38-4.254c0-1.819,0.528-3.299,1.585-4.442
		c1.056-1.142,2.379-1.713,3.969-1.713c0.874,0,1.669,0.179,2.385,0.537v-4.608l2.685-0.645v16.436H786.876z M786.876,225.99
		c-0.573-0.458-1.171-0.688-1.794-0.688c-1.074,0-1.901,0.328-2.481,0.983c-0.58,0.655-0.87,1.595-0.87,2.82
		c0,2.392,1.153,3.588,3.459,3.588c0.258,0,0.575-0.077,0.95-0.231c0.377-0.154,0.622-0.31,0.736-0.467V225.99z"/>
	<path style="fill:#F2F9FC;" d="M792.967,234.745v-9.303h-1.472v-2.202h4.19v11.505H792.967z M794.352,218.782
		c0.43,0,0.797,0.152,1.101,0.457c0.305,0.305,0.457,0.671,0.457,1.101c0,0.43-0.152,0.797-0.457,1.101
		c-0.304,0.305-0.671,0.457-1.101,0.457c-0.43,0-0.797-0.152-1.1-0.457c-0.305-0.304-0.457-0.671-0.457-1.101
		c0-0.43,0.152-0.796,0.457-1.101C793.556,218.934,793.923,218.782,794.352,218.782z"/>
	<path style="fill:#F2F9FC;" d="M805.213,233.595c-0.243,0.401-0.668,0.729-1.273,0.983c-0.605,0.254-1.237,0.381-1.896,0.381
		c-1.239,0-2.213-0.31-2.922-0.929c-0.709-0.619-1.063-1.499-1.063-2.637c0-1.332,0.499-2.374,1.499-3.126
		c0.998-0.752,2.418-1.128,4.259-1.128c0.315,0,0.688,0.054,1.117,0.161c0-1.354-0.856-2.03-2.567-2.03
		c-1.01,0-1.854,0.169-2.535,0.505l-0.58-2.084c0.924-0.444,2.023-0.666,3.298-0.666c1.755,0,3.04,0.399,3.857,1.198
		c0.816,0.799,1.225,2.311,1.225,4.538v2.46c0,1.533,0.308,2.496,0.924,2.89c-0.222,0.387-0.469,0.625-0.741,0.714
		s-0.584,0.134-0.935,0.134c-0.387,0-0.734-0.144-1.042-0.43C805.528,234.244,805.32,233.932,805.213,233.595z M804.955,229.331
		c-0.458-0.093-0.802-0.14-1.031-0.14c-2.12,0-3.18,0.695-3.18,2.084c0,1.031,0.598,1.547,1.794,1.547
		c1.611,0,2.417-0.806,2.417-2.417V229.331z"/>
	<path style="fill:#F2F9FC;" d="M823.851,234.745v-7.208c0-1.511-0.677-2.267-2.03-2.267c-0.401,0-0.788,0.118-1.16,0.354
		c-0.372,0.236-0.634,0.509-0.784,0.816v8.304h-2.686v-7.627c0-0.566-0.176-1.015-0.526-1.348c-0.351-0.333-0.845-0.499-1.482-0.499
		c-0.337,0-0.703,0.125-1.102,0.376c-0.396,0.251-0.686,0.526-0.864,0.827v8.271h-2.685V223.24h1.848l0.548,1.01
		c0.745-0.816,1.708-1.225,2.89-1.225c1.525,0,2.675,0.415,3.448,1.246c0.337-0.379,0.806-0.682,1.407-0.908
		c0.602-0.226,1.203-0.338,1.805-0.338c1.282,0,2.279,0.367,2.991,1.101c0.713,0.734,1.069,1.742,1.069,3.024v7.595H823.851z"/>
	<path style="fill:#F2F9FC;" d="M829.855,233.337c0-0.537,0.188-0.994,0.564-1.37c0.375-0.376,0.832-0.564,1.369-0.564
		c0.537,0,0.994,0.188,1.369,0.564c0.377,0.376,0.564,0.832,0.564,1.37c0,0.537-0.188,0.996-0.564,1.375
		c-0.375,0.379-0.832,0.569-1.369,0.569c-0.537,0-0.994-0.19-1.369-0.569C830.043,234.333,829.855,233.874,829.855,233.337z"/>
	<path style="fill:#F2F9FC;" d="M843.552,233.874l1.031-2.503c1.102,0.773,2.188,1.16,3.255,1.16c1.64,0,2.46-0.573,2.46-1.719
		c0-0.537-0.193-1.049-0.58-1.536c-0.387-0.487-1.184-1.033-2.391-1.638c-1.206-0.605-2.02-1.103-2.438-1.493
		c-0.42-0.39-0.742-0.854-0.967-1.391c-0.227-0.537-0.339-1.131-0.339-1.783c0-1.217,0.446-2.227,1.337-3.029
		c0.893-0.802,2.036-1.203,3.433-1.203c1.819,0,3.154,0.34,4.007,1.02l-0.849,2.406c-0.981-0.702-2.016-1.053-3.104-1.053
		c-0.644,0-1.144,0.17-1.498,0.51c-0.356,0.34-0.532,0.783-0.532,1.327c0,0.902,0.999,1.841,2.997,2.814
		c1.053,0.516,1.811,0.99,2.277,1.423c0.466,0.434,0.82,0.939,1.063,1.515c0.243,0.577,0.365,1.219,0.365,1.928
		c0,1.275-0.503,2.324-1.509,3.147c-1.007,0.824-2.354,1.235-4.045,1.235C846.059,235.013,844.733,234.634,843.552,233.874z"/>
	<path style="fill:#F2F9FC;" d="M862.802,234.755v-0.967c-0.38,0.322-0.902,0.598-1.568,0.827c-0.666,0.229-1.278,0.344-1.837,0.344
		c-2.671,0-4.007-1.418-4.007-4.254v-7.466h2.686v7.262c0,1.476,0.662,2.213,1.987,2.213c0.608,0,1.175-0.157,1.697-0.473
		c0.522-0.315,0.87-0.68,1.042-1.096v-7.906h2.686v11.516H862.802z"/>
	<path style="fill:#F2F9FC;" d="M867.679,234.003l0.956-2.138c0.802,0.638,1.708,0.956,2.718,0.956c1.046,0,1.568-0.372,1.568-1.117
		c0-0.437-0.157-0.795-0.473-1.074c-0.315-0.279-0.928-0.608-1.837-0.988c-1.983-0.823-2.976-1.977-2.976-3.459
		c0-0.995,0.38-1.771,1.139-2.326c0.759-0.555,1.73-0.833,2.911-0.833c1.196,0,2.32,0.269,3.373,0.806l-0.773,2.084
		c-0.587-0.501-1.403-0.752-2.449-0.752c-0.938,0-1.407,0.373-1.407,1.117c0,0.294,0.154,0.559,0.462,0.795
		c0.308,0.236,0.967,0.553,1.977,0.951c1.01,0.397,1.736,0.879,2.181,1.445c0.444,0.566,0.666,1.25,0.666,2.052
		c0,1.067-0.396,1.907-1.187,2.519c-0.792,0.612-1.868,0.919-3.229,0.919c-0.767,0-1.381-0.063-1.842-0.188
		C868.994,234.646,868.402,234.39,867.679,234.003z"/>
	<path style="fill:#F2F9FC;" d="M880.333,234.455v4.802h-2.686V223.24h2.686v0.773c0.673-0.659,1.5-0.988,2.481-0.988
		c3.667,0,5.5,2.02,5.5,6.059c0,1.884-0.507,3.334-1.52,4.351c-1.014,1.017-2.397,1.525-4.152,1.525
		C881.798,234.96,881.027,234.791,880.333,234.455z M880.333,226.054v6.048c0.487,0.394,1.057,0.591,1.708,0.591
		c1.239,0,2.129-0.295,2.67-0.886c0.54-0.591,0.811-1.523,0.811-2.798c0-1.36-0.269-2.318-0.806-2.874
		c-0.537-0.555-1.425-0.833-2.664-0.833C881.407,225.302,880.834,225.553,880.333,226.054z"/>
	<path style="fill:#F2F9FC;" d="M900.947,229.814h-8.218c0.05,0.917,0.365,1.629,0.945,2.138c0.58,0.509,1.36,0.763,2.342,0.763
		c1.225,0,2.155-0.318,2.793-0.956l1.042,2.052c-0.945,0.767-2.357,1.149-4.232,1.149c-1.755,0-3.142-0.514-4.163-1.542
		c-1.02-1.027-1.53-2.462-1.53-4.302c0-1.812,0.56-3.28,1.681-4.404c1.121-1.124,2.466-1.686,4.034-1.686
		c1.669,0,3.008,0.498,4.018,1.493c1.01,0.996,1.515,2.263,1.515,3.803C901.173,228.65,901.098,229.148,900.947,229.814z
		 M892.826,227.794h5.65c-0.187-1.683-1.117-2.524-2.793-2.524C894.151,225.27,893.198,226.112,892.826,227.794z"/>
	<path style="fill:#F2F9FC;" d="M910.723,234.745v-6.649c0-0.981-0.188-1.697-0.564-2.148c-0.375-0.451-0.989-0.677-1.842-0.677
		c-0.394,0-0.814,0.111-1.262,0.333c-0.448,0.222-0.797,0.498-1.048,0.827v8.314h-2.685V223.24h1.934l0.494,1.074
		c0.73-0.859,1.809-1.289,3.233-1.289c1.368,0,2.447,0.41,3.238,1.23c0.792,0.82,1.188,1.964,1.188,3.432v7.058H910.723z"/>
	<path style="fill:#F2F9FC;" d="M923.71,234.745v-0.698c-0.222,0.244-0.598,0.456-1.128,0.639c-0.53,0.183-1.078,0.274-1.643,0.274
		c-1.604,0-2.866-0.508-3.787-1.525c-0.92-1.017-1.38-2.435-1.38-4.254c0-1.819,0.528-3.299,1.585-4.442
		c1.056-1.142,2.379-1.713,3.969-1.713c0.874,0,1.669,0.179,2.385,0.537v-4.608l2.685-0.645v16.436H923.71z M923.71,225.99
		c-0.573-0.458-1.171-0.688-1.794-0.688c-1.074,0-1.901,0.328-2.481,0.983c-0.58,0.655-0.87,1.595-0.87,2.82
		c0,2.392,1.153,3.588,3.459,3.588c0.258,0,0.575-0.077,0.95-0.231c0.377-0.154,0.622-0.31,0.736-0.467V225.99z"/>
	<path style="fill:#F2F9FC;" d="M929.801,234.745v-9.303h-1.472v-2.202h4.189v11.505H929.801z M931.186,218.782
		c0.43,0,0.797,0.152,1.101,0.457c0.305,0.305,0.457,0.671,0.457,1.101c0,0.43-0.152,0.797-0.457,1.101
		c-0.304,0.305-0.671,0.457-1.101,0.457s-0.797-0.152-1.101-0.457c-0.305-0.304-0.457-0.671-0.457-1.101
		c0-0.43,0.152-0.796,0.457-1.101C930.39,218.934,930.757,218.782,931.186,218.782z"/>
	<path style="fill:#F2F9FC;" d="M934.935,234.003l0.956-2.138c0.802,0.638,1.708,0.956,2.718,0.956c1.046,0,1.568-0.372,1.568-1.117
		c0-0.437-0.157-0.795-0.473-1.074c-0.315-0.279-0.928-0.608-1.837-0.988c-1.983-0.823-2.976-1.977-2.976-3.459
		c0-0.995,0.38-1.771,1.139-2.326c0.759-0.555,1.729-0.833,2.911-0.833c1.196,0,2.32,0.269,3.373,0.806l-0.773,2.084
		c-0.587-0.501-1.403-0.752-2.449-0.752c-0.938,0-1.407,0.373-1.407,1.117c0,0.294,0.154,0.559,0.462,0.795
		c0.308,0.236,0.967,0.553,1.977,0.951c1.01,0.397,1.736,0.879,2.181,1.445c0.444,0.566,0.666,1.25,0.666,2.052
		c0,1.067-0.396,1.907-1.187,2.519c-0.792,0.612-1.868,0.919-3.229,0.919c-0.767,0-1.381-0.063-1.842-0.188
		C936.251,234.646,935.659,234.39,934.935,234.003z"/>
	<path style="fill:#F2F9FC;" d="M944.41,234.003l0.956-2.138c0.802,0.638,1.708,0.956,2.718,0.956c1.046,0,1.568-0.372,1.568-1.117
		c0-0.437-0.157-0.795-0.473-1.074c-0.315-0.279-0.928-0.608-1.837-0.988c-1.983-0.823-2.976-1.977-2.976-3.459
		c0-0.995,0.38-1.771,1.139-2.326c0.759-0.555,1.729-0.833,2.911-0.833c1.196,0,2.32,0.269,3.373,0.806l-0.773,2.084
		c-0.587-0.501-1.403-0.752-2.449-0.752c-0.938,0-1.407,0.373-1.407,1.117c0,0.294,0.154,0.559,0.462,0.795
		c0.308,0.236,0.967,0.553,1.977,0.951c1.01,0.397,1.736,0.879,2.181,1.445c0.444,0.566,0.666,1.25,0.666,2.052
		c0,1.067-0.395,1.907-1.186,2.519c-0.792,0.612-1.868,0.919-3.229,0.919c-0.767,0-1.381-0.063-1.842-0.188
		C945.726,234.646,945.134,234.39,944.41,234.003z"/>
	<path style="fill:#F2F9FC;" d="M964.863,229.814h-8.218c0.05,0.917,0.365,1.629,0.945,2.138c0.58,0.509,1.36,0.763,2.342,0.763
		c1.225,0,2.155-0.318,2.793-0.956l1.042,2.052c-0.945,0.767-2.357,1.149-4.232,1.149c-1.755,0-3.142-0.514-4.163-1.542
		c-1.02-1.027-1.53-2.462-1.53-4.302c0-1.812,0.56-3.28,1.681-4.404c1.121-1.124,2.466-1.686,4.034-1.686
		c1.669,0,3.008,0.498,4.018,1.493c1.01,0.996,1.515,2.263,1.515,3.803C965.089,228.65,965.014,229.148,964.863,229.814z
		 M956.742,227.794h5.65c-0.187-1.683-1.117-2.524-2.793-2.524C958.067,225.27,957.114,226.112,956.742,227.794z"/>
	<path style="fill:#F2F9FC;" d="M974.585,234.745v-9.303h-1.472v-2.202h4.189v11.505H974.585z M975.971,218.782
		c0.43,0,0.797,0.152,1.101,0.457c0.305,0.305,0.457,0.671,0.457,1.101c0,0.43-0.152,0.797-0.457,1.101
		c-0.304,0.305-0.671,0.457-1.101,0.457s-0.797-0.152-1.101-0.457c-0.305-0.304-0.457-0.671-0.457-1.101
		c0-0.43,0.152-0.796,0.457-1.101C975.174,218.934,975.541,218.782,975.971,218.782z"/>
	<path style="fill:#F2F9FC;" d="M987.83,234.745v-6.649c0-0.981-0.188-1.697-0.565-2.148c-0.375-0.451-0.989-0.677-1.842-0.677
		c-0.393,0-0.814,0.111-1.262,0.333c-0.448,0.222-0.797,0.498-1.048,0.827v8.314h-2.686V223.24h1.934l0.494,1.074
		c0.73-0.859,1.809-1.289,3.233-1.289c1.368,0,2.447,0.41,3.238,1.23c0.792,0.82,1.188,1.964,1.188,3.432v7.058H987.83z"/>
	<path style="fill:#F2F9FC;" d="M1007.445,234.745v-0.698c-0.222,0.244-0.598,0.456-1.128,0.639
		c-0.53,0.183-1.078,0.274-1.644,0.274c-1.605,0-2.866-0.508-3.787-1.525c-0.92-1.017-1.38-2.435-1.38-4.254
		c0-1.819,0.528-3.299,1.585-4.442c1.056-1.142,2.379-1.713,3.969-1.713c0.874,0,1.669,0.179,2.385,0.537v-4.608l2.686-0.645v16.436
		H1007.445z M1007.445,225.99c-0.573-0.458-1.171-0.688-1.794-0.688c-1.074,0-1.901,0.328-2.482,0.983
		c-0.58,0.655-0.87,1.595-0.87,2.82c0,2.392,1.153,3.588,3.459,3.588c0.258,0,0.575-0.077,0.95-0.231
		c0.377-0.154,0.622-0.31,0.736-0.467V225.99z"/>
	<path style="fill:#F2F9FC;" d="M1013.536,234.745v-9.303h-1.472v-2.202h4.189v11.505H1013.536z M1014.922,218.782
		c0.43,0,0.797,0.152,1.101,0.457c0.305,0.305,0.457,0.671,0.457,1.101c0,0.43-0.152,0.797-0.457,1.101
		c-0.304,0.305-0.671,0.457-1.101,0.457c-0.43,0-0.797-0.152-1.101-0.457c-0.305-0.304-0.457-0.671-0.457-1.101
		c0-0.43,0.152-0.796,0.457-1.101C1014.125,218.934,1014.492,218.782,1014.922,218.782z"/>
	<path style="fill:#F2F9FC;" d="M1025.782,233.595c-0.243,0.401-0.668,0.729-1.272,0.983c-0.605,0.254-1.237,0.381-1.896,0.381
		c-1.239,0-2.213-0.31-2.922-0.929c-0.709-0.619-1.063-1.499-1.063-2.637c0-1.332,0.499-2.374,1.499-3.126
		c0.998-0.752,2.418-1.128,4.259-1.128c0.315,0,0.688,0.054,1.117,0.161c0-1.354-0.855-2.03-2.567-2.03
		c-1.01,0-1.854,0.169-2.535,0.505l-0.58-2.084c0.924-0.444,2.023-0.666,3.298-0.666c1.755,0,3.04,0.399,3.856,1.198
		c0.816,0.799,1.225,2.311,1.225,4.538v2.46c0,1.533,0.308,2.496,0.924,2.89c-0.222,0.387-0.469,0.625-0.741,0.714
		s-0.584,0.134-0.935,0.134c-0.387,0-0.734-0.144-1.042-0.43S1025.89,233.932,1025.782,233.595z M1025.524,229.331
		c-0.458-0.093-0.802-0.14-1.031-0.14c-2.12,0-3.18,0.695-3.18,2.084c0,1.031,0.598,1.547,1.794,1.547
		c1.611,0,2.417-0.806,2.417-2.417V229.331z"/>
	<path style="fill:#F2F9FC;" d="M1044.42,234.745v-7.208c0-1.511-0.677-2.267-2.03-2.267c-0.401,0-0.788,0.118-1.16,0.354
		s-0.634,0.509-0.784,0.816v8.304h-2.686v-7.627c0-0.566-0.176-1.015-0.526-1.348c-0.351-0.333-0.845-0.499-1.482-0.499
		c-0.337,0-0.703,0.125-1.102,0.376c-0.396,0.251-0.686,0.526-0.864,0.827v8.271h-2.686V223.24h1.848l0.548,1.01
		c0.745-0.816,1.708-1.225,2.89-1.225c1.525,0,2.675,0.415,3.448,1.246c0.337-0.379,0.806-0.682,1.407-0.908
		s1.203-0.338,1.805-0.338c1.282,0,2.279,0.367,2.991,1.101c0.713,0.734,1.069,1.742,1.069,3.024v7.595H1044.42z"/>
	<path style="fill:#F2F9FC;" d="M1058.535,234.111l-0.602,0.849h-1.515v-16.006l2.686-0.645v5.371
		c0.716-0.437,1.497-0.655,2.342-0.655c1.683,0,3.04,0.532,4.071,1.595c1.031,1.063,1.547,2.426,1.547,4.087
		c0,1.927-0.52,3.45-1.558,4.571c-1.038,1.121-2.445,1.681-4.222,1.681C1060.218,234.96,1059.302,234.677,1058.535,234.111z
		 M1059.104,225.979v6.005c0.394,0.466,0.928,0.698,1.601,0.698c1.296,0,2.215-0.308,2.756-0.924
		c0.54-0.616,0.811-1.601,0.811-2.954c0-2.335-1.117-3.502-3.352-3.502C1060.125,225.302,1059.52,225.528,1059.104,225.979z"/>
	<path style="fill:#F2F9FC;" d="M1070.147,234.745v-9.303h-1.472v-2.202h4.189v11.505H1070.147z M1071.533,218.782
		c0.43,0,0.797,0.152,1.101,0.457c0.305,0.305,0.457,0.671,0.457,1.101c0,0.43-0.152,0.797-0.457,1.101
		c-0.304,0.305-0.671,0.457-1.101,0.457s-0.797-0.152-1.101-0.457c-0.305-0.304-0.457-0.671-0.457-1.101
		c0-0.43,0.152-0.796,0.457-1.101C1070.736,218.934,1071.104,218.782,1071.533,218.782z"/>
	<path style="fill:#F2F9FC;" d="M1077.893,234.111l-0.602,0.849h-1.515v-16.006l2.686-0.645v5.371
		c0.716-0.437,1.497-0.655,2.342-0.655c1.683,0,3.04,0.532,4.071,1.595c1.031,1.063,1.547,2.426,1.547,4.087
		c0,1.927-0.52,3.45-1.558,4.571c-1.038,1.121-2.445,1.681-4.222,1.681C1079.575,234.96,1078.659,234.677,1077.893,234.111z
		 M1078.462,225.979v6.005c0.394,0.466,0.928,0.698,1.601,0.698c1.296,0,2.215-0.308,2.756-0.924
		c0.54-0.616,0.811-1.601,0.811-2.954c0-2.335-1.117-3.502-3.352-3.502C1079.482,225.302,1078.877,225.528,1078.462,225.979z"/>
	<path style="fill:#F2F9FC;" d="M1099.055,229.814h-8.218c0.05,0.917,0.365,1.629,0.945,2.138c0.58,0.509,1.36,0.763,2.342,0.763
		c1.225,0,2.155-0.318,2.793-0.956l1.042,2.052c-0.945,0.767-2.356,1.149-4.232,1.149c-1.755,0-3.142-0.514-4.163-1.542
		c-1.02-1.027-1.53-2.462-1.53-4.302c0-1.812,0.561-3.28,1.681-4.404c1.121-1.124,2.466-1.686,4.034-1.686
		c1.669,0,3.008,0.498,4.018,1.493c1.01,0.996,1.515,2.263,1.515,3.803C1099.28,228.65,1099.205,229.148,1099.055,229.814z
		 M1090.934,227.794h5.65c-0.187-1.683-1.117-2.524-2.793-2.524C1092.259,225.27,1091.306,226.112,1090.934,227.794z"/>
	<path style="fill:#F2F9FC;" d="M1108.83,234.745v-6.649c0-0.981-0.188-1.697-0.564-2.148c-0.375-0.451-0.989-0.677-1.842-0.677
		c-0.394,0-0.814,0.111-1.262,0.333c-0.448,0.222-0.797,0.498-1.048,0.827v8.314h-2.686V223.24h1.934l0.494,1.074
		c0.73-0.859,1.809-1.289,3.233-1.289c1.368,0,2.447,0.41,3.238,1.23c0.792,0.82,1.188,1.964,1.188,3.432v7.058H1108.83z"/>
	<path style="fill:#F2F9FC;" d="M1121.817,234.745v-0.698c-0.222,0.244-0.598,0.456-1.128,0.639
		c-0.53,0.183-1.078,0.274-1.644,0.274c-1.604,0-2.866-0.508-3.787-1.525c-0.92-1.017-1.38-2.435-1.38-4.254
		c0-1.819,0.528-3.299,1.585-4.442c1.056-1.142,2.379-1.713,3.969-1.713c0.874,0,1.669,0.179,2.385,0.537v-4.608l2.686-0.645v16.436
		H1121.817z M1121.817,225.99c-0.573-0.458-1.171-0.688-1.794-0.688c-1.074,0-1.901,0.328-2.481,0.983
		c-0.58,0.655-0.87,1.595-0.87,2.82c0,2.392,1.153,3.588,3.459,3.588c0.258,0,0.575-0.077,0.95-0.231
		c0.377-0.154,0.622-0.31,0.736-0.467V225.99z"/>
	<path style="fill:#F2F9FC;" d="M1134.601,234.755v-0.967c-0.38,0.322-0.902,0.598-1.568,0.827
		c-0.666,0.229-1.278,0.344-1.837,0.344c-2.671,0-4.007-1.418-4.007-4.254v-7.466h2.686v7.262c0,1.476,0.662,2.213,1.987,2.213
		c0.608,0,1.175-0.157,1.697-0.473c0.522-0.315,0.87-0.68,1.042-1.096v-7.906h2.686v11.516H1134.601z"/>
	<path style="fill:#F2F9FC;" d="M1153.507,234.745v-7.208c0-1.511-0.677-2.267-2.03-2.267c-0.401,0-0.788,0.118-1.16,0.354
		s-0.634,0.509-0.784,0.816v8.304h-2.686v-7.627c0-0.566-0.176-1.015-0.526-1.348c-0.351-0.333-0.845-0.499-1.482-0.499
		c-0.337,0-0.703,0.125-1.102,0.376c-0.396,0.251-0.686,0.526-0.864,0.827v8.271h-2.686V223.24h1.848l0.548,1.01
		c0.745-0.816,1.708-1.225,2.89-1.225c1.525,0,2.675,0.415,3.448,1.246c0.337-0.379,0.806-0.682,1.407-0.908
		s1.203-0.338,1.805-0.338c1.282,0,2.279,0.367,2.991,1.101c0.713,0.734,1.069,1.742,1.069,3.024v7.595H1153.507z"/>
	<path style="fill:#F2F9FC;" d="M1159.974,238.762l-0.913-1.171c1.311-0.981,1.966-1.751,1.966-2.31
		c0-0.215-0.075-0.426-0.226-0.634c-0.681-0.329-1.021-0.791-1.021-1.386c0-0.43,0.179-0.786,0.537-1.069
		c0.358-0.283,0.802-0.424,1.332-0.424c0.494,0,0.926,0.188,1.294,0.564c0.369,0.376,0.554,0.811,0.554,1.305
		c0,0.91-0.213,1.738-0.64,2.487C1162.432,236.873,1161.471,237.752,1159.974,238.762z"/>
	<path style="fill:#F2F9FC;" d="M590.852,259.995c-0.243,0.401-0.668,0.729-1.272,0.983c-0.605,0.254-1.237,0.381-1.896,0.381
		c-1.239,0-2.213-0.31-2.922-0.93c-0.709-0.619-1.063-1.498-1.063-2.637c0-1.332,0.499-2.374,1.499-3.126
		c0.998-0.752,2.418-1.128,4.259-1.128c0.315,0,0.688,0.054,1.117,0.161c0-1.354-0.855-2.03-2.567-2.03
		c-1.01,0-1.854,0.169-2.535,0.505l-0.58-2.084c0.924-0.444,2.023-0.666,3.298-0.666c1.755,0,3.04,0.399,3.856,1.198
		c0.816,0.799,1.225,2.312,1.225,4.538v2.46c0,1.532,0.308,2.496,0.924,2.89c-0.222,0.387-0.469,0.625-0.741,0.714
		c-0.272,0.09-0.584,0.135-0.935,0.135c-0.387,0-0.734-0.144-1.042-0.43C591.168,260.644,590.96,260.332,590.852,259.995z
		 M590.595,255.73c-0.458-0.093-0.802-0.14-1.031-0.14c-2.12,0-3.18,0.694-3.18,2.084c0,1.031,0.598,1.547,1.794,1.547
		c1.611,0,2.417-0.806,2.417-2.417V255.73z"/>
	<path style="fill:#F2F9FC;" d="M605.193,250.553l-1.149,2.009c-0.63-0.594-1.476-0.892-2.535-0.892
		c-1.017,0-1.82,0.339-2.412,1.016c-0.59,0.677-0.886,1.612-0.886,2.809c0,2.413,1.15,3.62,3.448,3.62
		c0.995,0,1.873-0.329,2.632-0.988l0.988,2.116c-0.78,0.487-1.463,0.795-2.046,0.924c-0.584,0.129-1.273,0.193-2.068,0.193
		c-1.776,0-3.178-0.518-4.205-1.553c-1.028-1.034-1.542-2.472-1.542-4.313c0-1.811,0.562-3.276,1.686-4.393
		c1.124-1.117,2.657-1.676,4.598-1.676C603.041,249.425,604.205,249.801,605.193,250.553z"/>
	<path style="fill:#F2F9FC;" d="M616.451,250.553l-1.149,2.009c-0.63-0.594-1.476-0.892-2.535-0.892
		c-1.017,0-1.82,0.339-2.412,1.016c-0.59,0.677-0.886,1.612-0.886,2.809c0,2.413,1.149,3.62,3.448,3.62
		c0.995,0,1.873-0.329,2.632-0.988l0.988,2.116c-0.78,0.487-1.463,0.795-2.046,0.924c-0.584,0.129-1.273,0.193-2.068,0.193
		c-1.776,0-3.178-0.518-4.205-1.553c-1.028-1.034-1.542-2.472-1.542-4.313c0-1.811,0.563-3.276,1.687-4.393
		c1.124-1.117,2.657-1.676,4.598-1.676C614.299,249.425,615.463,249.801,616.451,250.553z"/>
	<path style="fill:#F2F9FC;" d="M626.098,261.155v-0.967c-0.38,0.322-0.902,0.598-1.568,0.827s-1.278,0.344-1.837,0.344
		c-2.671,0-4.007-1.418-4.007-4.254v-7.466h2.686v7.262c0,1.476,0.662,2.213,1.987,2.213c0.608,0,1.175-0.157,1.697-0.473
		c0.522-0.315,0.87-0.681,1.042-1.096v-7.906h2.686v11.516H626.098z"/>
	<path style="fill:#F2F9FC;" d="M645.004,261.145v-7.208c0-1.511-0.677-2.267-2.03-2.267c-0.401,0-0.788,0.118-1.16,0.354
		c-0.372,0.236-0.634,0.509-0.784,0.816v8.304h-2.685v-7.627c0-0.565-0.176-1.015-0.526-1.348c-0.351-0.333-0.845-0.5-1.482-0.5
		c-0.337,0-0.703,0.126-1.102,0.376c-0.396,0.251-0.685,0.526-0.864,0.827v8.271h-2.685V249.64h1.848l0.548,1.01
		c0.745-0.816,1.708-1.225,2.89-1.225c1.525,0,2.675,0.415,3.448,1.246c0.337-0.379,0.806-0.682,1.407-0.908
		c0.602-0.226,1.203-0.338,1.805-0.338c1.282,0,2.279,0.367,2.991,1.101c0.713,0.735,1.069,1.743,1.069,3.024v7.595H645.004z"/>
	<path style="fill:#F2F9FC;" d="M649.881,260.403l0.956-2.138c0.802,0.638,1.708,0.956,2.718,0.956c1.046,0,1.568-0.372,1.568-1.117
		c0-0.436-0.157-0.795-0.473-1.074s-0.928-0.608-1.837-0.988c-1.983-0.823-2.976-1.977-2.976-3.459c0-0.995,0.38-1.77,1.139-2.326
		c0.759-0.555,1.729-0.832,2.911-0.832c1.196,0,2.32,0.269,3.373,0.806l-0.773,2.084c-0.587-0.501-1.403-0.752-2.449-0.752
		c-0.938,0-1.407,0.373-1.407,1.117c0,0.294,0.154,0.559,0.462,0.795c0.308,0.236,0.967,0.554,1.977,0.951
		c1.01,0.396,1.736,0.879,2.181,1.444c0.444,0.565,0.666,1.25,0.666,2.052c0,1.067-0.396,1.906-1.187,2.52
		c-0.792,0.611-1.868,0.918-3.229,0.918c-0.767,0-1.381-0.063-1.842-0.188C651.196,261.046,650.604,260.79,649.881,260.403z"/>
	<path style="fill:#F2F9FC;" d="M666.467,259.995c-0.243,0.401-0.668,0.729-1.273,0.983c-0.605,0.254-1.237,0.381-1.896,0.381
		c-1.239,0-2.213-0.31-2.922-0.93c-0.709-0.619-1.063-1.498-1.063-2.637c0-1.332,0.499-2.374,1.499-3.126
		c0.998-0.752,2.418-1.128,4.259-1.128c0.315,0,0.688,0.054,1.117,0.161c0-1.354-0.856-2.03-2.567-2.03
		c-1.01,0-1.854,0.169-2.535,0.505l-0.58-2.084c0.924-0.444,2.023-0.666,3.298-0.666c1.755,0,3.04,0.399,3.857,1.198
		c0.816,0.799,1.225,2.312,1.225,4.538v2.46c0,1.532,0.308,2.496,0.924,2.89c-0.222,0.387-0.469,0.625-0.741,0.714
		c-0.273,0.09-0.584,0.135-0.935,0.135c-0.387,0-0.734-0.144-1.042-0.43C666.782,260.644,666.574,260.332,666.467,259.995z
		 M666.209,255.73c-0.458-0.093-0.802-0.14-1.031-0.14c-2.12,0-3.18,0.694-3.18,2.084c0,1.031,0.598,1.547,1.794,1.547
		c1.611,0,2.417-0.806,2.417-2.417V255.73z"/>
	<path style="fill:#F2F9FC;" d="M679.185,261.145v-6.649c0-0.98-0.188-1.697-0.564-2.148c-0.375-0.451-0.989-0.677-1.842-0.677
		c-0.394,0-0.815,0.111-1.262,0.333c-0.448,0.223-0.797,0.498-1.048,0.827v8.314h-2.685V249.64h1.934l0.494,1.074
		c0.731-0.859,1.809-1.289,3.233-1.289c1.368,0,2.447,0.41,3.238,1.23c0.792,0.821,1.188,1.964,1.188,3.432v7.058H679.185z"/>
	<path style="fill:#F2F9FC;" d="M701.669,256.214h-8.218c0.05,0.917,0.365,1.629,0.945,2.138c0.58,0.509,1.36,0.763,2.342,0.763
		c1.225,0,2.155-0.318,2.793-0.956l1.042,2.052c-0.945,0.767-2.356,1.149-4.232,1.149c-1.755,0-3.142-0.514-4.163-1.541
		c-1.019-1.028-1.53-2.462-1.53-4.303c0-1.811,0.561-3.279,1.681-4.404c1.121-1.124,2.466-1.686,4.034-1.686
		c1.669,0,3.008,0.498,4.018,1.493c1.01,0.996,1.515,2.264,1.515,3.803C701.894,255.05,701.819,255.548,701.669,256.214z
		 M693.548,254.194h5.65c-0.187-1.683-1.117-2.524-2.793-2.524C694.873,251.67,693.92,252.512,693.548,254.194z"/>
	<path style="fill:#F2F9FC;" d="M703.334,260.403l0.956-2.138c0.802,0.638,1.708,0.956,2.718,0.956c1.046,0,1.568-0.372,1.568-1.117
		c0-0.436-0.157-0.795-0.473-1.074c-0.315-0.279-0.928-0.608-1.837-0.988c-1.983-0.823-2.976-1.977-2.976-3.459
		c0-0.995,0.38-1.77,1.139-2.326c0.759-0.555,1.729-0.832,2.911-0.832c1.196,0,2.32,0.269,3.373,0.806l-0.773,2.084
		c-0.587-0.501-1.403-0.752-2.449-0.752c-0.939,0-1.407,0.373-1.407,1.117c0,0.294,0.154,0.559,0.462,0.795
		c0.308,0.236,0.967,0.554,1.977,0.951c1.01,0.396,1.736,0.879,2.181,1.444c0.444,0.565,0.666,1.25,0.666,2.052
		c0,1.067-0.396,1.906-1.187,2.52c-0.792,0.611-1.868,0.918-3.228,0.918c-0.767,0-1.381-0.063-1.842-0.188
		C704.649,261.046,704.058,260.79,703.334,260.403z"/>
	<path style="fill:#F2F9FC;" d="M713.926,251.799h-1.332v-2.159h1.332v-2.342l2.685-0.988v3.33h3.158v2.159h-3.158v5.038
		c0,0.823,0.129,1.405,0.387,1.745c0.258,0.341,0.709,0.511,1.354,0.511c0.645,0,1.246-0.176,1.805-0.526v2.471
		c-0.623,0.215-1.511,0.322-2.664,0.322c-1.146,0-2.026-0.324-2.643-0.973c-0.616-0.647-0.924-1.569-0.924-2.766V251.799z"/>
	<path style="fill:#F2F9FC;" d="M735.271,259.995c-0.243,0.401-0.668,0.729-1.273,0.983c-0.605,0.254-1.237,0.381-1.896,0.381
		c-1.239,0-2.213-0.31-2.922-0.93c-0.709-0.619-1.063-1.498-1.063-2.637c0-1.332,0.499-2.374,1.499-3.126
		c0.998-0.752,2.418-1.128,4.259-1.128c0.315,0,0.687,0.054,1.117,0.161c0-1.354-0.856-2.03-2.567-2.03
		c-1.01,0-1.854,0.169-2.535,0.505l-0.58-2.084c0.924-0.444,2.023-0.666,3.298-0.666c1.755,0,3.04,0.399,3.857,1.198
		c0.816,0.799,1.225,2.312,1.225,4.538v2.46c0,1.532,0.308,2.496,0.924,2.89c-0.222,0.387-0.469,0.625-0.741,0.714
		c-0.272,0.09-0.584,0.135-0.935,0.135c-0.387,0-0.734-0.144-1.042-0.43C735.586,260.644,735.378,260.332,735.271,259.995z
		 M735.013,255.73c-0.458-0.093-0.802-0.14-1.031-0.14c-2.12,0-3.18,0.694-3.18,2.084c0,1.031,0.598,1.547,1.794,1.547
		c1.611,0,2.417-0.806,2.417-2.417V255.73z"/>
	<path style="fill:#F2F9FC;" d="M749.611,250.553l-1.149,2.009c-0.63-0.594-1.476-0.892-2.535-0.892
		c-1.017,0-1.82,0.339-2.412,1.016c-0.59,0.677-0.886,1.612-0.886,2.809c0,2.413,1.149,3.62,3.448,3.62
		c0.995,0,1.873-0.329,2.632-0.988l0.988,2.116c-0.78,0.487-1.463,0.795-2.046,0.924c-0.584,0.129-1.273,0.193-2.068,0.193
		c-1.776,0-3.178-0.518-4.205-1.553c-1.028-1.034-1.542-2.472-1.542-4.313c0-1.811,0.563-3.276,1.687-4.393
		c1.124-1.117,2.657-1.676,4.598-1.676C747.459,249.425,748.623,249.801,749.611,250.553z"/>
	<path style="fill:#F2F9FC;" d="M752.727,265.162l-0.913-1.171c1.311-0.981,1.966-1.751,1.966-2.31c0-0.215-0.075-0.426-0.226-0.634
		c-0.681-0.329-1.021-0.791-1.021-1.386c0-0.43,0.179-0.786,0.537-1.068c0.358-0.283,0.802-0.425,1.332-0.425
		c0.494,0,0.926,0.188,1.294,0.563c0.369,0.377,0.554,0.812,0.554,1.306c0,0.909-0.213,1.738-0.64,2.487
		C755.185,263.273,754.224,264.152,752.727,265.162z"/>
	<path style="fill:#F2F9FC;" d="M775.575,250.553l-1.149,2.009c-0.63-0.594-1.476-0.892-2.535-0.892
		c-1.017,0-1.82,0.339-2.412,1.016c-0.59,0.677-0.886,1.612-0.886,2.809c0,2.413,1.149,3.62,3.448,3.62
		c0.995,0,1.873-0.329,2.632-0.988l0.988,2.116c-0.78,0.487-1.463,0.795-2.046,0.924c-0.584,0.129-1.273,0.193-2.068,0.193
		c-1.776,0-3.178-0.518-4.205-1.553c-1.028-1.034-1.542-2.472-1.542-4.313c0-1.811,0.563-3.276,1.686-4.393
		c1.124-1.117,2.657-1.676,4.598-1.676C773.423,249.425,774.587,249.801,775.575,250.553z"/>
	<path style="fill:#F2F9FC;" d="M777.058,255.365c0-1.755,0.507-3.183,1.521-4.286c1.013-1.103,2.351-1.654,4.012-1.654
		c1.747,0,3.104,0.53,4.071,1.59c0.967,1.061,1.45,2.51,1.45,4.351c0,1.833-0.492,3.291-1.477,4.372
		c-0.985,1.081-2.333,1.622-4.045,1.622c-1.747,0-3.106-0.546-4.076-1.639C777.543,258.629,777.058,257.177,777.058,255.365z
		 M779.851,255.365c0,2.535,0.913,3.803,2.739,3.803c0.838,0,1.502-0.329,1.992-0.988c0.491-0.659,0.736-1.597,0.736-2.814
		c0-2.499-0.909-3.749-2.729-3.749c-0.838,0-1.504,0.33-1.998,0.988C780.098,253.264,779.851,254.184,779.851,255.365z"/>
	<path style="fill:#F2F9FC;" d="M797.661,261.145v-6.649c0-0.98-0.188-1.697-0.564-2.148c-0.375-0.451-0.989-0.677-1.842-0.677
		c-0.394,0-0.815,0.111-1.262,0.333c-0.448,0.223-0.797,0.498-1.048,0.827v8.314h-2.685V249.64h1.934l0.494,1.074
		c0.731-0.859,1.809-1.289,3.233-1.289c1.368,0,2.447,0.41,3.238,1.23c0.792,0.821,1.188,1.964,1.188,3.432v7.058H797.661z"/>
	<path style="fill:#F2F9FC;" d="M808.017,261.359h-0.967l-5.199-11.72h2.943l2.75,7.025l2.954-7.025h2.847L808.017,261.359z"/>
	<path style="fill:#F2F9FC;" d="M821.251,259.995c-0.243,0.401-0.668,0.729-1.273,0.983c-0.605,0.254-1.237,0.381-1.896,0.381
		c-1.239,0-2.213-0.31-2.922-0.93c-0.709-0.619-1.063-1.498-1.063-2.637c0-1.332,0.499-2.374,1.499-3.126
		c0.998-0.752,2.418-1.128,4.259-1.128c0.315,0,0.688,0.054,1.117,0.161c0-1.354-0.856-2.03-2.567-2.03
		c-1.01,0-1.854,0.169-2.535,0.505l-0.58-2.084c0.924-0.444,2.023-0.666,3.298-0.666c1.755,0,3.04,0.399,3.857,1.198
		c0.816,0.799,1.225,2.312,1.225,4.538v2.46c0,1.532,0.308,2.496,0.924,2.89c-0.222,0.387-0.469,0.625-0.741,0.714
		c-0.273,0.09-0.584,0.135-0.935,0.135c-0.387,0-0.734-0.144-1.042-0.43C821.566,260.644,821.358,260.332,821.251,259.995z
		 M820.993,255.73c-0.458-0.093-0.802-0.14-1.031-0.14c-2.12,0-3.18,0.694-3.18,2.084c0,1.031,0.598,1.547,1.794,1.547
		c1.611,0,2.417-0.806,2.417-2.417V255.73z"/>
	<path style="fill:#F2F9FC;" d="M827.03,245.354l2.685-0.645v12.934c0,1.418,0.423,2.263,1.268,2.535
		c-0.415,0.788-1.124,1.182-2.127,1.182c-1.218,0-1.826-0.845-1.826-2.535V245.354z"/>
	<path style="fill:#F2F9FC;" d="M833.519,245.354l2.686-0.645v12.934c0,1.418,0.423,2.263,1.268,2.535
		c-0.415,0.788-1.124,1.182-2.127,1.182c-1.218,0-1.826-0.845-1.826-2.535V245.354z"/>
	<path style="fill:#F2F9FC;" d="M840.265,261.145v-9.303h-1.472v-2.202h4.189v11.505H840.265z M841.65,245.182
		c0.43,0,0.797,0.152,1.101,0.457c0.305,0.305,0.457,0.671,0.457,1.101c0,0.43-0.152,0.797-0.457,1.101
		c-0.304,0.305-0.671,0.457-1.101,0.457s-0.797-0.152-1.101-0.457c-0.305-0.304-0.457-0.671-0.457-1.101
		c0-0.43,0.152-0.796,0.457-1.101C840.853,245.334,841.221,245.182,841.65,245.182z"/>
	<path style="fill:#F2F9FC;" d="M845.399,260.403l0.956-2.138c0.802,0.638,1.708,0.956,2.718,0.956c1.046,0,1.568-0.372,1.568-1.117
		c0-0.436-0.157-0.795-0.473-1.074c-0.315-0.279-0.928-0.608-1.837-0.988c-1.983-0.823-2.976-1.977-2.976-3.459
		c0-0.995,0.38-1.77,1.139-2.326c0.759-0.555,1.729-0.832,2.911-0.832c1.196,0,2.32,0.269,3.373,0.806l-0.773,2.084
		c-0.587-0.501-1.403-0.752-2.449-0.752c-0.938,0-1.407,0.373-1.407,1.117c0,0.294,0.154,0.559,0.462,0.795
		c0.308,0.236,0.967,0.554,1.977,0.951c1.01,0.396,1.736,0.879,2.181,1.444c0.444,0.565,0.666,1.25,0.666,2.052
		c0,1.067-0.396,1.906-1.187,2.52c-0.792,0.611-1.868,0.918-3.229,0.918c-0.767,0-1.381-0.063-1.842-0.188
		C846.715,261.046,846.123,260.79,845.399,260.403z"/>
	<path style="fill:#F2F9FC;" d="M862.673,245.354l2.686-0.645v12.934c0,1.418,0.423,2.263,1.268,2.535
		c-0.415,0.788-1.124,1.182-2.127,1.182c-1.218,0-1.826-0.845-1.826-2.535V245.354z"/>
	<path style="fill:#F2F9FC;" d="M869.419,261.145v-9.303h-1.472v-2.202h4.189v11.505H869.419z M870.805,245.182
		c0.43,0,0.797,0.152,1.101,0.457c0.305,0.305,0.457,0.671,0.457,1.101c0,0.43-0.152,0.797-0.457,1.101
		c-0.304,0.305-0.671,0.457-1.101,0.457s-0.797-0.152-1.101-0.457c-0.305-0.304-0.457-0.671-0.457-1.101
		c0-0.43,0.152-0.796,0.457-1.101C870.008,245.334,870.375,245.182,870.805,245.182z"/>
	<path style="fill:#F2F9FC;" d="M874.403,264.099l1.697-2.095c0.938,0.859,1.983,1.289,3.137,1.289c0.773,0,1.411-0.114,1.912-0.344
		c0.501-0.229,0.752-0.544,0.752-0.945c0-0.681-0.555-1.021-1.665-1.021c-0.301,0-0.748,0.036-1.343,0.107
		c-0.595,0.071-1.042,0.107-1.343,0.107c-1.848,0-2.771-0.662-2.771-1.987c0-0.38,0.154-0.752,0.462-1.117
		c0.308-0.365,0.666-0.634,1.074-0.806c-1.31-0.853-1.966-2.059-1.966-3.62c0-1.232,0.451-2.25,1.354-3.056
		c0.902-0.806,2.013-1.208,3.33-1.208c1.031,0,1.894,0.193,2.589,0.58l1.053-1.225l1.858,1.686l-1.278,0.935
		c0.444,0.674,0.666,1.469,0.666,2.385c0,1.311-0.399,2.358-1.198,3.142c-0.798,0.785-1.806,1.177-3.023,1.177
		c-0.193,0-0.451-0.018-0.773-0.054l-0.44-0.064c-0.05,0-0.241,0.077-0.575,0.23c-0.332,0.154-0.499,0.313-0.499,0.478
		c0,0.286,0.247,0.43,0.741,0.43c0.222,0,0.595-0.054,1.117-0.161c0.523-0.107,0.971-0.161,1.343-0.161
		c2.614,0,3.921,1.049,3.921,3.147c0,1.16-0.523,2.071-1.568,2.733c-1.046,0.663-2.306,0.994-3.781,0.994
		C877.422,265.656,875.828,265.137,874.403,264.099z M877.089,253.679c0,0.681,0.188,1.227,0.563,1.638
		c0.377,0.412,0.883,0.618,1.521,0.618c0.638,0,1.128-0.2,1.472-0.602c0.344-0.401,0.516-0.952,0.516-1.654
		c0-0.58-0.185-1.07-0.553-1.472c-0.369-0.4-0.848-0.602-1.435-0.602c-0.616,0-1.117,0.193-1.504,0.58
		C877.282,252.572,877.089,253.07,877.089,253.679z"/>
	<path style="fill:#F2F9FC;" d="M893.718,261.155v-0.967c-0.38,0.322-0.902,0.598-1.568,0.827c-0.666,0.229-1.278,0.344-1.837,0.344
		c-2.671,0-4.007-1.418-4.007-4.254v-7.466h2.685v7.262c0,1.476,0.662,2.213,1.987,2.213c0.608,0,1.175-0.157,1.697-0.473
		c0.522-0.315,0.87-0.681,1.042-1.096v-7.906h2.685v11.516H893.718z"/>
	<path style="fill:#F2F9FC;" d="M899.766,245.354l2.686-0.645v12.934c0,1.418,0.423,2.263,1.268,2.535
		c-0.415,0.788-1.124,1.182-2.127,1.182c-1.218,0-1.826-0.845-1.826-2.535V245.354z"/>
	<path style="fill:#F2F9FC;" d="M912.194,259.995c-0.243,0.401-0.668,0.729-1.272,0.983c-0.605,0.254-1.237,0.381-1.896,0.381
		c-1.239,0-2.213-0.31-2.922-0.93c-0.709-0.619-1.063-1.498-1.063-2.637c0-1.332,0.499-2.374,1.499-3.126
		c0.998-0.752,2.418-1.128,4.259-1.128c0.315,0,0.688,0.054,1.117,0.161c0-1.354-0.855-2.03-2.567-2.03
		c-1.01,0-1.854,0.169-2.535,0.505l-0.58-2.084c0.924-0.444,2.023-0.666,3.298-0.666c1.755,0,3.04,0.399,3.856,1.198
		c0.816,0.799,1.225,2.312,1.225,4.538v2.46c0,1.532,0.308,2.496,0.924,2.89c-0.222,0.387-0.469,0.625-0.741,0.714
		c-0.272,0.09-0.584,0.135-0.935,0.135c-0.387,0-0.734-0.144-1.042-0.43S912.302,260.332,912.194,259.995z M911.936,255.73
		c-0.458-0.093-0.802-0.14-1.031-0.14c-2.12,0-3.18,0.694-3.18,2.084c0,1.031,0.598,1.547,1.794,1.547
		c1.611,0,2.417-0.806,2.417-2.417V255.73z"/>
	<path style="fill:#F2F9FC;" d="M917.931,259.737c0-0.537,0.188-0.993,0.564-1.37c0.375-0.375,0.832-0.563,1.369-0.563
		c0.537,0,0.994,0.188,1.369,0.563c0.377,0.377,0.564,0.833,0.564,1.37s-0.188,0.995-0.564,1.375
		c-0.375,0.38-0.832,0.569-1.369,0.569c-0.537,0-0.994-0.189-1.369-0.569C918.118,260.732,917.931,260.274,917.931,259.737z"/>
</g>
<g>
	<path style="fill:#F2F9FC;" d="M791.762,167.169c0,0.481-0.015,0.89-0.043,1.226c-0.029,0.337-0.072,0.626-0.13,0.866
		c-0.058,0.241-0.135,0.447-0.231,0.62c-0.096,0.173-0.25,0.371-0.461,0.591c-0.212,0.222-0.62,0.505-1.226,0.851
		c-0.606,0.347-1.347,0.678-2.222,0.996c-0.875,0.317-1.875,0.582-3,0.794c-1.125,0.211-2.342,0.317-3.649,0.317
		c-2.559,0-4.867-0.395-6.925-1.183c-2.059-0.788-3.809-1.966-5.251-3.534c-1.442-1.567-2.549-3.524-3.317-5.871
		c-0.77-2.347-1.154-5.078-1.154-8.194c0-3.173,0.423-5.991,1.27-8.453c0.846-2.462,2.029-4.53,3.549-6.203
		c1.519-1.673,3.342-2.943,5.467-3.808c2.125-0.866,4.467-1.298,7.025-1.298c1.039,0,2.038,0.086,3.001,0.259
		c0.961,0.173,1.851,0.399,2.668,0.678c0.817,0.279,1.554,0.602,2.207,0.966c0.654,0.366,1.111,0.678,1.371,0.938
		c0.26,0.259,0.437,0.476,0.533,0.649c0.097,0.173,0.174,0.395,0.231,0.664c0.058,0.27,0.101,0.587,0.13,0.952
		c0.028,0.366,0.043,0.818,0.043,1.356c0,0.577-0.019,1.067-0.058,1.472c-0.039,0.404-0.106,0.731-0.202,0.981
		c-0.097,0.25-0.212,0.433-0.347,0.548c-0.135,0.116-0.288,0.173-0.461,0.173c-0.289,0-0.654-0.169-1.097-0.505
		c-0.442-0.337-1.015-0.712-1.717-1.126c-0.702-0.413-1.539-0.788-2.51-1.125c-0.972-0.336-2.131-0.505-3.477-0.505
		c-1.482,0-2.804,0.303-3.967,0.909c-1.164,0.606-2.154,1.472-2.972,2.597c-0.818,1.125-1.439,2.486-1.861,4.082
		c-0.423,1.597-0.635,3.395-0.635,5.395c0,2.193,0.227,4.092,0.679,5.698c0.451,1.606,1.096,2.928,1.933,3.967
		c0.837,1.039,1.847,1.813,3.029,2.323c1.183,0.51,2.515,0.764,3.996,0.764c1.346,0,2.51-0.159,3.491-0.476
		c0.98-0.317,1.821-0.669,2.524-1.053c0.701-0.385,1.278-0.731,1.731-1.039s0.803-0.462,1.054-0.462
		c0.191,0,0.346,0.039,0.461,0.116c0.115,0.077,0.212,0.23,0.289,0.461c0.076,0.231,0.134,0.553,0.173,0.966
		C791.743,165.924,791.762,166.477,791.762,167.169z"/>
	<path style="fill:#F2F9FC;" d="M826.355,171.785c0,0.192-0.063,0.366-0.188,0.519c-0.126,0.154-0.332,0.279-0.621,0.375
		c-0.288,0.096-0.673,0.173-1.153,0.23c-0.481,0.058-1.087,0.087-1.818,0.087c-0.75,0-1.37-0.029-1.86-0.087
		c-0.49-0.058-0.876-0.134-1.154-0.23c-0.279-0.096-0.48-0.221-0.605-0.375c-0.126-0.153-0.188-0.327-0.188-0.519v-15.089h-13.964
		v15.089c0,0.192-0.059,0.366-0.174,0.519c-0.115,0.154-0.317,0.279-0.606,0.375c-0.289,0.096-0.674,0.173-1.154,0.23
		c-0.48,0.058-1.096,0.087-1.847,0.087c-0.73,0-1.341-0.029-1.832-0.087c-0.49-0.058-0.88-0.134-1.168-0.23
		c-0.289-0.096-0.495-0.221-0.62-0.375c-0.126-0.153-0.188-0.327-0.188-0.519v-35.256c0-0.192,0.062-0.365,0.188-0.52
		c0.125-0.154,0.331-0.279,0.62-0.375c0.288-0.096,0.678-0.173,1.168-0.231c0.491-0.058,1.102-0.087,1.832-0.087
		c0.751,0,1.366,0.029,1.847,0.087c0.481,0.058,0.865,0.135,1.154,0.231c0.288,0.096,0.49,0.221,0.606,0.375
		c0.115,0.154,0.174,0.327,0.174,0.52v13.704h13.964v-13.704c0-0.192,0.061-0.365,0.188-0.52c0.125-0.154,0.326-0.279,0.605-0.375
		c0.278-0.096,0.664-0.173,1.154-0.231c0.49-0.058,1.11-0.087,1.86-0.087c0.731,0,1.337,0.029,1.818,0.087
		c0.48,0.058,0.865,0.135,1.153,0.231c0.289,0.096,0.495,0.221,0.621,0.375c0.124,0.154,0.188,0.327,0.188,0.52V171.785z"/>
	<path style="fill:#F2F9FC;" d="M865.073,169.996c0.23,0.693,0.375,1.241,0.433,1.645c0.058,0.404-0.019,0.707-0.23,0.909
		c-0.212,0.202-0.588,0.327-1.126,0.375c-0.538,0.048-1.279,0.072-2.222,0.072c-0.98,0-1.745-0.015-2.293-0.043
		c-0.549-0.029-0.967-0.087-1.255-0.173c-0.289-0.086-0.491-0.206-0.607-0.36c-0.115-0.154-0.212-0.356-0.288-0.606l-2.51-7.501
		h-14.023l-2.365,7.299c-0.077,0.27-0.179,0.496-0.303,0.678c-0.126,0.183-0.328,0.327-0.606,0.433
		c-0.279,0.105-0.673,0.178-1.183,0.216c-0.51,0.039-1.179,0.058-2.005,0.058c-0.886,0-1.578-0.029-2.078-0.087
		s-0.846-0.197-1.038-0.418c-0.192-0.221-0.26-0.534-0.202-0.938c0.058-0.404,0.202-0.942,0.433-1.616l11.512-33.121
		c0.115-0.327,0.25-0.591,0.404-0.793c0.153-0.202,0.398-0.356,0.735-0.462c0.336-0.105,0.803-0.173,1.399-0.202
		c0.596-0.029,1.385-0.044,2.366-0.044c1.134,0,2.038,0.014,2.712,0.044c0.673,0.029,1.197,0.096,1.572,0.202
		c0.375,0.106,0.644,0.265,0.808,0.476c0.163,0.212,0.303,0.5,0.418,0.866L865.073,169.996z M847.935,142.617h-0.029l-5.279,15.868
		h10.588L847.935,142.617z"/>
	<path style="fill:#F2F9FC;" d="M890.52,138.607c0,0.558-0.024,1.034-0.072,1.428c-0.049,0.395-0.121,0.711-0.217,0.952
		c-0.097,0.241-0.216,0.418-0.36,0.534c-0.145,0.115-0.303,0.173-0.477,0.173h-9.348v30.092c0,0.192-0.063,0.366-0.188,0.519
		c-0.125,0.154-0.332,0.279-0.62,0.375c-0.288,0.096-0.678,0.173-1.168,0.23c-0.491,0.058-1.102,0.087-1.832,0.087
		c-0.731,0-1.342-0.029-1.832-0.087c-0.491-0.058-0.881-0.134-1.169-0.23c-0.288-0.096-0.495-0.221-0.62-0.375
		c-0.125-0.153-0.188-0.327-0.188-0.519v-30.092h-9.348c-0.192,0-0.356-0.058-0.491-0.173c-0.135-0.116-0.25-0.293-0.346-0.534
		c-0.097-0.241-0.169-0.558-0.217-0.952c-0.048-0.394-0.071-0.87-0.071-1.428c0-0.577,0.023-1.067,0.071-1.472
		c0.048-0.404,0.12-0.726,0.217-0.966c0.096-0.24,0.211-0.414,0.346-0.52c0.135-0.105,0.299-0.159,0.491-0.159h26.312
		c0.174,0,0.332,0.053,0.477,0.159c0.144,0.106,0.264,0.279,0.36,0.52c0.096,0.241,0.168,0.563,0.217,0.966
		C890.496,137.539,890.52,138.029,890.52,138.607z"/>
	<path style="fill:#F2F9FC;" d="M935.325,161.629c0,1.327-0.184,2.53-0.548,3.607c-0.366,1.078-0.871,2.03-1.515,2.856
		c-0.645,0.827-1.414,1.539-2.309,2.135c-0.894,0.597-1.88,1.087-2.957,1.472c-1.077,0.385-2.227,0.668-3.448,0.851
		c-1.222,0.183-2.582,0.274-4.082,0.274h-9.925c-0.635,0-1.168-0.188-1.602-0.563c-0.433-0.375-0.648-0.985-0.648-1.832v-32.544
		c0-0.846,0.216-1.457,0.648-1.832c0.434-0.375,0.967-0.563,1.602-0.563h9.377c2.288,0,4.227,0.193,5.813,0.577
		c1.587,0.385,2.923,0.967,4.01,1.746c1.087,0.779,1.919,1.765,2.496,2.957c0.577,1.193,0.865,2.597,0.865,4.212
		c0,0.904-0.115,1.755-0.347,2.553c-0.23,0.798-0.567,1.525-1.01,2.178c-0.442,0.654-0.985,1.232-1.63,1.732
		c-0.645,0.5-1.38,0.904-2.207,1.211c1.058,0.192,2.034,0.529,2.929,1.01c0.894,0.481,1.673,1.102,2.337,1.861
		c0.663,0.76,1.188,1.649,1.572,2.669C935.132,159.216,935.325,160.36,935.325,161.629z M925.515,145.906
		c0-0.75-0.115-1.423-0.346-2.02c-0.231-0.596-0.577-1.091-1.039-1.486c-0.462-0.394-1.044-0.697-1.745-0.909
		c-0.703-0.212-1.641-0.317-2.813-0.317h-3.837v9.694h4.241c1.096,0,1.971-0.13,2.625-0.39c0.654-0.26,1.197-0.615,1.63-1.067
		c0.434-0.452,0.755-0.981,0.967-1.587C925.41,147.218,925.515,146.579,925.515,145.906z M927.448,161.889
		c0-0.866-0.143-1.64-0.433-2.322c-0.288-0.683-0.712-1.255-1.269-1.717c-0.558-0.462-1.269-0.817-2.135-1.067
		c-0.865-0.25-1.99-0.375-3.375-0.375h-4.501v10.617h5.481c1.058,0,1.947-0.111,2.669-0.332c0.721-0.221,1.346-0.548,1.875-0.981
		s0.942-0.971,1.241-1.616C927.299,163.452,927.448,162.716,927.448,161.889z"/>
	<path style="fill:#F2F9FC;" d="M974.995,153.724c0,3.097-0.385,5.867-1.154,8.309c-0.768,2.443-1.914,4.516-3.433,6.218
		c-1.519,1.702-3.4,3-5.641,3.895c-2.241,0.895-4.832,1.342-7.775,1.342c-2.904,0-5.439-0.38-7.603-1.14
		c-2.163-0.76-3.967-1.918-5.409-3.477c-1.442-1.558-2.524-3.538-3.246-5.943c-0.721-2.404-1.082-5.251-1.082-8.54
		c0-3.019,0.385-5.736,1.154-8.15c0.77-2.414,1.914-4.467,3.434-6.16c1.52-1.692,3.399-2.99,5.641-3.895
		c2.24-0.904,4.842-1.356,7.804-1.356c2.827,0,5.323,0.375,7.487,1.125c2.163,0.75,3.972,1.904,5.424,3.462
		c1.452,1.558,2.548,3.525,3.289,5.9C974.624,147.69,974.995,150.493,974.995,153.724z M967.032,154.128
		c0-1.962-0.154-3.746-0.461-5.352c-0.309-1.606-0.833-2.981-1.573-4.126c-0.74-1.145-1.727-2.029-2.957-2.654
		c-1.23-0.625-2.769-0.938-4.616-0.938c-1.865,0-3.424,0.351-4.674,1.053c-1.25,0.702-2.26,1.64-3.029,2.813
		c-0.77,1.173-1.313,2.544-1.63,4.111c-0.317,1.568-0.477,3.227-0.477,4.977c0,2.039,0.154,3.871,0.462,5.496
		c0.308,1.626,0.827,3.015,1.559,4.169c0.73,1.154,1.711,2.034,2.942,2.64c1.231,0.606,2.779,0.909,4.644,0.909
		c1.866,0,3.424-0.346,4.675-1.039c1.25-0.692,2.26-1.635,3.029-2.828c0.769-1.192,1.313-2.582,1.63-4.169
		C966.873,157.605,967.032,155.917,967.032,154.128z"/>
	<path style="fill:#F2F9FC;" d="M1004.914,138.607c0,0.558-0.024,1.034-0.072,1.428c-0.049,0.395-0.121,0.711-0.217,0.952
		c-0.097,0.241-0.216,0.418-0.36,0.534c-0.144,0.115-0.303,0.173-0.477,0.173h-9.348v30.092c0,0.192-0.063,0.366-0.188,0.519
		c-0.125,0.154-0.332,0.279-0.62,0.375c-0.288,0.096-0.678,0.173-1.168,0.23c-0.491,0.058-1.102,0.087-1.832,0.087
		c-0.732,0-1.342-0.029-1.832-0.087c-0.491-0.058-0.881-0.134-1.169-0.23c-0.288-0.096-0.495-0.221-0.62-0.375
		c-0.125-0.153-0.188-0.327-0.188-0.519v-30.092h-9.348c-0.192,0-0.356-0.058-0.491-0.173c-0.135-0.116-0.25-0.293-0.346-0.534
		c-0.097-0.241-0.169-0.558-0.217-0.952c-0.048-0.394-0.071-0.87-0.071-1.428c0-0.577,0.023-1.067,0.071-1.472
		c0.048-0.404,0.12-0.726,0.217-0.966c0.096-0.24,0.211-0.414,0.346-0.52c0.135-0.105,0.299-0.159,0.491-0.159h26.312
		c0.174,0,0.332,0.053,0.477,0.159c0.145,0.106,0.264,0.279,0.36,0.52c0.096,0.241,0.168,0.563,0.217,0.966
		C1004.89,137.539,1004.914,138.029,1004.914,138.607z"/>
</g>
<g>
	<g>
		<path style="fill:#9DDCFF;" d="M259.489,413.933c-85.889,0-155.765-69.876-155.765-155.766
			c0-85.889,69.876-155.765,155.765-155.765c85.889,0,155.765,69.875,155.765,155.765
			C415.254,344.057,345.378,413.933,259.489,413.933z M259.489,132.06c-69.536,0-126.108,56.572-126.108,126.107
			c0,69.536,56.572,126.107,126.108,126.107c69.535,0,126.106-56.571,126.106-126.107
			C385.596,188.632,329.024,132.06,259.489,132.06z"/>
	</g>
	<g>
		<path style="fill:#9DDCFF;" d="M259.489,444.536c-102.765,0-186.37-83.604-186.37-186.369
			c0-102.764,83.605-186.369,186.37-186.369v3.297c-100.947,0-183.073,82.126-183.073,183.072S158.542,441.24,259.489,441.24
			c30.771,0,61.203-7.78,88.003-22.5l1.588,2.891C321.794,436.616,290.814,444.536,259.489,444.536z"/>
	</g>
	<g>
		<path style="fill:#9DDCFF;" d="M424.337,345.186l-2.914-1.541c13.829-26.145,21.139-55.702,21.139-85.478
			c0-78.922-50.262-148.724-125.07-173.693l1.043-3.128c76.157,25.42,127.324,96.478,127.324,176.821
			C445.858,288.479,438.417,318.569,424.337,345.186z"/>
	</g>
	<g>
		<path style="fill:#9DDCFF;" d="M108.564,105.623c-9.326,0-16.913-7.587-16.913-16.913s7.587-16.913,16.913-16.913
			s16.912,7.587,16.912,16.913S117.89,105.623,108.564,105.623z M108.564,75.095c-7.508,0-13.616,6.108-13.616,13.616
			s6.108,13.616,13.616,13.616c7.507,0,13.615-6.108,13.615-13.616S116.071,75.095,108.564,75.095z"/>
	</g>
	<g>
		<circle style="fill:#9DDCFF;" cx="108.564" cy="88.711" r="9.989"/>
	</g>
	<g>
		<path style="fill:#E3F4FC;" d="M444.21,392.208c-5.963,0-10.814-4.851-10.814-10.813c0-5.962,4.851-10.813,10.814-10.813
			c5.962,0,10.813,4.85,10.813,10.813C455.022,387.358,450.172,392.208,444.21,392.208z M444.21,372.231
			c-5.054,0-9.165,4.111-9.165,9.164c0,5.054,4.111,9.165,9.165,9.165c5.053,0,9.164-4.111,9.164-9.165
			C453.374,376.342,449.263,372.231,444.21,372.231z"/>
	</g>
	<g>
		<path style="fill:#E3F4FC;" d="M450.746,381.395c0,3.61-2.927,6.537-6.537,6.537s-6.537-2.927-6.537-6.537
			s2.927-6.537,6.537-6.537S450.746,377.785,450.746,381.395z"/>
	</g>
	<g>
		<path style="fill:#E3F4FC;" d="M343.105,140.971c-5.962,0-10.813-4.851-10.813-10.813s4.851-10.813,10.813-10.813
			c5.963,0,10.814,4.851,10.814,10.813S349.068,140.971,343.105,140.971z M343.105,120.993c-5.053,0-9.164,4.111-9.164,9.165
			c0,5.053,4.111,9.165,9.164,9.165c5.054,0,9.165-4.111,9.165-9.165C352.27,125.105,348.159,120.993,343.105,120.993z"/>
	</g>
	<g>
		<path style="fill:#E3F4FC;" d="M347.728,130.158c0,2.553-2.069,4.622-4.622,4.622s-4.622-2.069-4.622-4.622
			c0-2.553,2.07-4.622,4.622-4.622S347.728,127.605,347.728,130.158z"/>
	</g>
	<g>
		<path style="fill:#9DDCFF;" d="M158.548,63.486c-0.455,0-0.824-0.369-0.824-0.824v-9.305c0-0.455,0.369-0.824,0.824-0.824
			c0.455,0,0.824,0.369,0.824,0.824v9.305C159.372,63.117,159.003,63.486,158.548,63.486z"/>
	</g>
	<g>
		<path style="fill:#9DDCFF;" d="M158.548,80.352c-0.455,0-0.824-0.369-0.824-0.824v-9.306c0-0.455,0.369-0.824,0.824-0.824
			c0.455,0,0.824,0.369,0.824,0.824v9.306C159.372,79.983,159.003,80.352,158.548,80.352z"/>
	</g>
	<g>
		<path style="fill:#9DDCFF;" d="M171.924,66.976h-9.305c-0.455,0-0.824-0.369-0.824-0.824c0-0.455,0.369-0.824,0.824-0.824h9.305
			c0.455,0,0.824,0.369,0.824,0.824C172.748,66.607,172.379,66.976,171.924,66.976z"/>
	</g>
	<g>
		<path style="fill:#9DDCFF;" d="M154.477,66.976h-9.306c-0.455,0-0.824-0.369-0.824-0.824c0-0.455,0.369-0.824,0.824-0.824h9.306
			c0.455,0,0.824,0.369,0.824,0.824C155.301,66.607,154.932,66.976,154.477,66.976z"/>
	</g>
	<g>
		<path style="fill:#9DDCFF;" d="M161.768,63.756c-0.211,0-0.422-0.081-0.583-0.241c-0.322-0.322-0.322-0.844,0-1.166l6.58-6.58
			c0.322-0.321,0.844-0.321,1.166,0c0.322,0.322,0.322,0.844,0,1.166l-6.58,6.58C162.189,63.676,161.979,63.756,161.768,63.756z"/>
	</g>
	<g>
		<path style="fill:#9DDCFF;" d="M148.748,76.775c-0.211,0-0.422-0.08-0.583-0.241c-0.322-0.322-0.322-0.844,0-1.166l6.58-6.58
			c0.322-0.321,0.844-0.321,1.166,0c0.322,0.322,0.322,0.844,0,1.166l-6.58,6.58C149.17,76.695,148.959,76.775,148.748,76.775z"/>
	</g>
	<g>
		<path style="fill:#9DDCFF;" d="M168.347,76.775c-0.211,0-0.422-0.08-0.583-0.241l-6.58-6.58c-0.322-0.322-0.322-0.844,0-1.166
			c0.322-0.321,0.844-0.321,1.166,0l6.58,6.58c0.322,0.322,0.322,0.844,0,1.166C168.769,76.695,168.558,76.775,168.347,76.775z"/>
	</g>
	<g>
		<path style="fill:#9DDCFF;" d="M155.329,63.756c-0.211,0-0.422-0.081-0.583-0.241l-6.58-6.58c-0.322-0.322-0.322-0.844,0-1.166
			c0.322-0.321,0.844-0.321,1.166,0l6.58,6.58c0.322,0.322,0.322,0.844,0,1.166C155.75,63.676,155.539,63.756,155.329,63.756z"/>
	</g>
	<g>
		<path style="fill:#9DDCFF;" d="M457.418,347.016c-0.211,0-0.422-0.08-0.583-0.241c-0.321-0.322-0.321-0.844,0-1.166l6.58-6.58
			c0.322-0.322,0.844-0.322,1.166,0c0.321,0.322,0.321,0.844,0,1.166l-6.58,6.58C457.84,346.936,457.629,347.016,457.418,347.016z"
			/>
	</g>
	<g>
		<path style="fill:#9DDCFF;" d="M444.399,360.034c-0.211,0-0.422-0.08-0.583-0.241c-0.321-0.322-0.321-0.844,0-1.166l6.58-6.58
			c0.322-0.322,0.844-0.322,1.166,0c0.321,0.322,0.321,0.844,0,1.166l-6.58,6.58C444.821,359.954,444.61,360.034,444.399,360.034z"
			/>
	</g>
	<g>
		<path style="fill:#9DDCFF;" d="M463.998,360.034c-0.211,0-0.422-0.08-0.583-0.241l-6.58-6.58c-0.321-0.322-0.321-0.844,0-1.166
			c0.322-0.322,0.844-0.322,1.166,0l6.58,6.58c0.321,0.322,0.321,0.844,0,1.166C464.42,359.954,464.209,360.034,463.998,360.034z"/>
	</g>
	<g>
		<path style="fill:#9DDCFF;" d="M450.979,347.016c-0.211,0-0.422-0.08-0.583-0.241l-6.58-6.58c-0.321-0.322-0.321-0.844,0-1.166
			c0.322-0.322,0.844-0.322,1.166,0l6.58,6.58c0.321,0.322,0.321,0.844,0,1.166C451.401,346.936,451.19,347.016,450.979,347.016z"/>
	</g>
	<g>
		<path style="fill:#9DDCFF;" d="M456.159,137.727c-0.629,0-1.14-0.51-1.14-1.139v-12.86c0-0.629,0.511-1.139,1.14-1.139
			c0.629,0,1.14,0.51,1.14,1.139v12.86C457.299,137.218,456.788,137.727,456.159,137.727z"/>
	</g>
	<g>
		<path style="fill:#9DDCFF;" d="M456.159,161.036c-0.629,0-1.14-0.51-1.14-1.139v-12.86c0-0.629,0.511-1.139,1.14-1.139
			c0.629,0,1.14,0.51,1.14,1.139v12.86C457.299,160.527,456.788,161.036,456.159,161.036z"/>
	</g>
	<g>
		<path style="fill:#9DDCFF;" d="M474.645,142.55h-12.859c-0.629,0-1.14-0.51-1.14-1.139c0-0.629,0.511-1.139,1.14-1.139h12.859
			c0.629,0,1.14,0.51,1.14,1.139C475.785,142.04,475.274,142.55,474.645,142.55z"/>
	</g>
	<g>
		<path style="fill:#9DDCFF;" d="M450.533,142.55h-12.86c-0.629,0-1.14-0.51-1.14-1.139c0-0.629,0.511-1.139,1.14-1.139h12.86
			c0.629,0,1.14,0.51,1.14,1.139C451.673,142.04,451.162,142.55,450.533,142.55z"/>
	</g>
	<g>
		<path style="fill:#9DDCFF;" d="M460.608,138.1c-0.292,0-0.583-0.111-0.806-0.333c-0.444-0.445-0.444-1.167,0-1.611l9.094-9.093
			c0.445-0.444,1.166-0.444,1.611,0c0.444,0.445,0.444,1.167,0,1.611l-9.094,9.093C461.191,137.989,460.9,138.1,460.608,138.1z"/>
	</g>
	<g>
		<path style="fill:#9DDCFF;" d="M442.616,156.093c-0.292,0-0.583-0.111-0.806-0.334c-0.444-0.445-0.444-1.166,0-1.611l9.094-9.093
			c0.445-0.444,1.166-0.444,1.611,0c0.444,0.445,0.444,1.166,0,1.611l-9.094,9.093C443.199,155.981,442.908,156.093,442.616,156.093
			z"/>
	</g>
	<g>
		<path style="fill:#9DDCFF;" d="M469.702,156.093c-0.292,0-0.583-0.111-0.806-0.334l-9.094-9.093c-0.444-0.445-0.444-1.166,0-1.611
			c0.445-0.444,1.166-0.444,1.611,0l9.094,9.093c0.444,0.445,0.444,1.167,0,1.611C470.285,155.981,469.994,156.093,469.702,156.093z
			"/>
	</g>
	<g>
		<path style="fill:#9DDCFF;" d="M451.71,138.1c-0.292,0-0.583-0.111-0.806-0.333l-9.094-9.093c-0.444-0.445-0.444-1.167,0-1.611
			c0.445-0.444,1.166-0.444,1.611,0l9.094,9.093c0.444,0.445,0.444,1.167,0,1.611C452.293,137.989,452.002,138.1,451.71,138.1z"/>
	</g>
	<g>
		<path style="fill:#9DDCFF;" d="M93.3,426.041c-0.654,0-1.185-0.53-1.185-1.184v-13.372c0-0.654,0.53-1.185,1.185-1.185
			c0.654,0,1.185,0.53,1.185,1.185v13.372C94.484,425.511,93.954,426.041,93.3,426.041z"/>
	</g>
	<g>
		<path style="fill:#9DDCFF;" d="M99.986,419.355H86.614c-0.654,0-1.185-0.53-1.185-1.185c0-0.654,0.53-1.185,1.185-1.185h13.372
			c0.654,0,1.185,0.53,1.185,1.185C101.17,418.824,100.64,419.355,99.986,419.355z"/>
	</g>
	<g>
		<path style="fill:#9DDCFF;" d="M38.001,238.668c-1.124,0-2.035-0.911-2.035-2.035v-22.97c0-1.124,0.911-2.035,2.035-2.035
			s2.035,0.911,2.035,2.035v22.97C40.036,237.757,39.125,238.668,38.001,238.668z"/>
	</g>
	<g>
		<path style="fill:#9DDCFF;" d="M49.487,227.182H26.516c-1.124,0-2.035-0.911-2.035-2.035c0-1.124,0.911-2.035,2.035-2.035h22.971
			c1.124,0,2.035,0.911,2.035,2.035C51.521,226.272,50.611,227.182,49.487,227.182z"/>
	</g>
	<g>
		<path style="fill:#E3F4FC;" d="M298.145,405.737c-0.757,0-1.371-0.614-1.371-1.371V388.89c0-0.757,0.614-1.371,1.371-1.371
			c0.757,0,1.371,0.614,1.371,1.371v15.476C299.516,405.122,298.902,405.737,298.145,405.737z"/>
	</g>
	<g>
		<path style="fill:#E3F4FC;" d="M305.884,397.998h-15.476c-0.757,0-1.371-0.614-1.371-1.371c0-0.757,0.614-1.371,1.371-1.371
			h15.476c0.757,0,1.371,0.614,1.371,1.371C307.255,397.384,306.641,397.998,305.884,397.998z"/>
	</g>
	<g>
		<path style="fill:#E3F4FC;" d="M53.862,303.374c-0.757,0-1.371-0.614-1.371-1.371v-15.476c0-0.757,0.614-1.371,1.371-1.371
			c0.757,0,1.371,0.614,1.371,1.371v15.476C55.233,302.76,54.619,303.374,53.862,303.374z"/>
	</g>
	<g>
		<path style="fill:#E3F4FC;" d="M61.6,295.637H46.124c-0.757,0-1.371-0.614-1.371-1.371c0-0.757,0.614-1.371,1.371-1.371H61.6
			c0.757,0,1.371,0.614,1.371,1.371C62.971,295.023,62.357,295.637,61.6,295.637z"/>
	</g>
	<g>
		<path style="fill:#E3F4FC;" d="M450.533,197.797c-0.658,0-1.191-0.533-1.191-1.191v-13.45c0-0.658,0.533-1.191,1.191-1.191
			c0.658,0,1.191,0.533,1.191,1.191v13.45C451.725,197.264,451.191,197.797,450.533,197.797z"/>
	</g>
	<g>
		<path style="fill:#E3F4FC;" d="M457.258,191.072h-13.449c-0.658,0-1.191-0.533-1.191-1.191c0-0.658,0.533-1.191,1.191-1.191
			h13.449c0.658,0,1.191,0.533,1.191,1.191C458.449,190.539,457.916,191.072,457.258,191.072z"/>
	</g>
	<g>
		<path style="fill:#E3F4FC;" d="M72.964,189.533c-0.961,0-1.927-0.145-2.871-0.438c-5.079-1.577-7.929-6.991-6.352-12.07
			c1.576-5.079,6.992-7.931,12.071-6.353c2.46,0.764,4.477,2.44,5.676,4.72c1.2,2.28,1.44,4.891,0.676,7.351v-0.001
			c-0.764,2.461-2.44,4.477-4.72,5.677C76.039,189.158,74.508,189.533,72.964,189.533z M72.957,171.886
			c-3.411,0-6.579,2.202-7.642,5.627c-1.307,4.211,1.056,8.701,5.267,10.008c2.042,0.632,4.205,0.434,6.095-0.561
			c1.89-0.995,3.28-2.666,3.913-4.706v-0.001c0.633-2.039,0.434-4.204-0.56-6.094c-0.995-1.89-2.666-3.28-4.706-3.913
			C74.537,172.002,73.74,171.886,72.957,171.886z"/>
	</g>
	<g>
		<path style="fill:#E3F4FC;" d="M70.337,188.308c-0.533-0.166-1.036-0.382-1.513-0.634c-0.02,0.049-0.046,0.094-0.062,0.145
			l-5.827,18.773c-0.27,0.87,0.216,1.793,1.086,2.063c0.869,0.27,1.793-0.216,2.063-1.086l5.827-18.773
			c0.016-0.051,0.021-0.103,0.031-0.155C71.408,188.58,70.871,188.473,70.337,188.308z"/>
	</g>
	<g>
		<path style="fill:#E3F4FC;" d="M78.466,180.247c-0.44,1.417-1.945,2.209-3.363,1.77c-1.417-0.44-2.209-1.945-1.77-3.363
			c0.44-1.417,1.945-2.209,3.363-1.77S78.906,178.83,78.466,180.247z"/>
	</g>
	<g>
		<path style="fill:#E3F4FC;" d="M387.995,420.98h-21.662c-1.261,0-2.286-1.025-2.286-2.286v-14.418
			c0-1.261,1.025-2.287,2.286-2.287h21.662c1.261,0,2.286,1.026,2.286,2.287v14.418C390.281,419.954,389.256,420.98,387.995,420.98z
			 M366.333,403.637c-0.352,0-0.638,0.286-0.638,0.639v14.418c0,0.346,0.292,0.638,0.638,0.638h21.662
			c0.352,0,0.638-0.286,0.638-0.638v-14.418c0-0.353-0.286-0.639-0.638-0.639H366.333z"/>
	</g>
	<g>
		<path style="fill:#E3F4FC;" d="M377.164,413.048c-0.193,0-0.386-0.067-0.541-0.202l-10.831-9.411
			c-0.259-0.226-0.352-0.589-0.231-0.911c0.121-0.321,0.429-0.535,0.773-0.535h21.662c0.344,0,0.651,0.214,0.772,0.535
			c0.12,0.322,0.027,0.685-0.231,0.911l-10.831,9.411C377.55,412.981,377.356,413.048,377.164,413.048z M368.538,403.637
			l8.626,7.495l8.626-7.495H368.538z"/>
	</g>
</g>
<path style="fill:#E1AD86;" d="M381.675,499.534l-7.316-21.87c-8.417-25.161-12.278-51.617-11.4-78.133
	c1.283-38.742-8.633-86.975-9.04-90.039c-0.643-4.84-13.193-54.185-13.193-54.185l-4.485-14.844l-12.837,152.745l-135.299,4.377
	c0,0,12.761,51.949,13.761,57.949s22.58,37,29.79,35l8.35,9.89L381.675,499.534z"/>
<path style="fill:#D69E7A;" d="M318.034,405.828c0-0.646,0.997-0.558,0.997,0.08v3.265l28.697,35.363c0,0-7.218-18.495-7.003-46.538
	c0.261-33.996-4.485-107.674-4.485-107.674l-23.04,111.664l4.833,5.956V405.828z"/>
<polygon style="fill:#D69E7A;" points="323.403,411.484 192.344,406.129 323.403,392.208 "/>
<path style="fill:#E1AD86;" d="M184.104,198.202c-4.239,4.333-22.665-17.609-27.952-16.138
	c-5.287,1.471-35.522,28.737,16.596,56.604c0,0-8.971-3.709-18.941-7c-20.327-6.708-23.518-5.358-24.941-4.486
	c-6.445,3.95-8.472,17.193-4,26.352c4.902,10.04,17.935,14.36,44,23c3.795,1.258,6.999,2.232,9.295,2.907
	c-2.996,5.704-5.993,11.408-8.989,17.112c0,0-21.081-20.694-34.193-18.356c-13.112,2.337-30.347,34.047,37.77,54.192
	C240.866,352.534,184.104,198.202,184.104,198.202z"/>
<path style="fill:#D69E7A;" d="M269.814,412.854c-0.444-0.467,0.328-1.104,0.77-0.639c0.5,0.526,0.906,1.114,1.241,1.739
	l0.558-0.022v-7.804l-82.037-0.382l2.734,11.238l77.61-2.988C270.439,413.594,270.151,413.209,269.814,412.854z"/>
<g>
	<path style="fill:#2C3E52;" d="M324.24,406.129H176.026c-6.6,0-12-5.4-12-12V102.94c0-6.6,5.4-12,12-12H324.24c6.6,0,12,5.4,12,12
		v291.189C336.24,400.729,330.84,406.129,324.24,406.129z"/>
	<path style="fill:#F5EDEA;" d="M321.92,366.534H178.347c-1.43,0-2.6-1.17-2.6-2.6V114.992c0-1.43,1.17-2.6,2.6-2.6H321.92
		c1.43,0,2.6,1.17,2.6,2.6v248.943C324.519,365.365,323.349,366.534,321.92,366.534z"/>
	<path style="fill:#F5EDEA;" d="M276.296,395.135H223.97c-1.338,0-2.434-1.095-2.434-2.434v-10.365c0-1.339,1.095-2.434,2.434-2.434
		h52.326c1.339,0,2.434,1.095,2.434,2.434v10.365C278.73,394.04,277.635,395.135,276.296,395.135z"/>
	<path style="fill:#F5EDEA;" d="M272.848,104.388h-49.679c-1.564,0-2.844-1.28-2.844-2.844l0,0c0-1.564,1.28-2.844,2.844-2.844
		h49.679c1.564,0,2.844,1.28,2.844,2.844l0,0C275.692,103.108,274.412,104.388,272.848,104.388z"/>
	<path style="fill:#F5EDEA;" d="M281.003,104.388L281.003,104.388c-1.564,0-2.844-1.28-2.844-2.844l0,0
		c0-1.564,1.28-2.844,2.844-2.844l0,0c1.564,0,2.844,1.28,2.844,2.844l0,0C283.848,103.108,282.568,104.388,281.003,104.388z"/>
</g>
<g>
	<path style="fill:#B2AAA8;" d="M269.633,202.792h-40.087c-3.45,0-6.273-2.823-6.273-6.273v-20.864c0-3.45,2.823-6.273,6.273-6.273
		h40.087c3.45,0,6.273,2.823,6.273,6.273v20.864C275.906,199.969,273.083,202.792,269.633,202.792z"/>
	<path style="fill:#B2AAA8;" d="M250.35,175.561L250.35,175.561c-1.702,0-3.082-1.38-3.082-3.082v-4.636
		c0-1.702,1.38-3.082,3.082-3.082l0,0c1.702,0,3.082,1.38,3.082,3.082v4.636C253.432,174.181,252.052,175.561,250.35,175.561z"/>
	<path style="fill:#F5EDEA;" d="M240.968,184.754c0,2.221-1.801,4.022-4.022,4.022c-2.221,0-4.022-1.801-4.022-4.022
		c0-2.221,1.801-4.022,4.022-4.022C239.167,180.732,240.968,182.533,240.968,184.754z"/>
	<path style="fill:#F5EDEA;" d="M266.491,184.754c0,2.221-1.801,4.022-4.022,4.022c-2.221,0-4.022-1.801-4.022-4.022
		c0-2.221,1.801-4.022,4.022-4.022C264.69,180.732,266.491,182.533,266.491,184.754z"/>
	<path style="fill:#B2AAA8;" d="M274.164,257.787h-47.629c-3.662,0-6.658-2.996-6.658-6.658v-39.133
		c0-3.662,2.996-6.658,6.658-6.658h47.629c3.662,0,6.658,2.996,6.658,6.658v39.133C280.822,254.791,277.826,257.787,274.164,257.787
		z"/>
</g>
<polygon style="fill:#B2AAA8;" points="219.929,226.021 208.31,233.903 202.45,225.265 219.878,211.997 "/>
<polygon style="fill:#B2AAA8;" points="210.035,234.572 211.701,248.513 201.336,249.752 199.003,232.53 "/>
<circle style="fill:#B2AAA8;" cx="203.901" cy="230.361" r="7.401"/>
<path style="fill:#B2AAA8;" d="M208.427,244.902c-6.037,0-10.931,4.894-10.931,10.931c0,3.56,1.703,6.722,4.338,8.718l2.986-2.542
	c-1.724-1.254-2.847-3.286-2.847-5.581c0-3.809,3.088-6.897,6.897-6.897c3.809,0,6.897,3.088,6.897,6.897
	c0,0.941-0.189,1.839-0.531,2.656l3.435,0.565c0.443-1.189,0.686-2.474,0.686-3.817
	C219.358,249.796,214.464,244.902,208.427,244.902z"/>
<polygon style="fill:#B2AAA8;" points="280.074,226.021 291.693,233.903 297.552,225.265 280.125,211.997 "/>
<polygon style="fill:#B2AAA8;" points="289.968,234.572 288.302,248.513 298.667,249.752 300.999,232.53 "/>
<circle style="fill:#B2AAA8;" cx="296.102" cy="230.361" r="7.401"/>
<path style="fill:#B2AAA8;" d="M291.575,244.902c6.037,0,10.931,4.894,10.931,10.931c0,3.56-1.703,6.722-4.338,8.718l-2.986-2.542
	c1.724-1.254,2.846-3.286,2.846-5.581c0-3.809-3.088-6.897-6.897-6.897c-3.809,0-6.897,3.088-6.897,6.897
	c0,0.941,0.189,1.839,0.531,2.656l-3.435,0.565c-0.443-1.189-0.686-2.474-0.686-3.817
	C280.644,249.796,285.538,244.902,291.575,244.902z"/>
<rect x="225.11" y="251.234" style="fill:#B2AAA8;" width="15.627" height="43.954"/>
<rect x="261.077" y="251.234" style="fill:#B2AAA8;" width="15.627" height="43.954"/>
<rect x="221.393" y="297.429" style="fill:#B2AAA8;" width="21.609" height="4.802"/>
<rect x="258.812" y="297.306" style="fill:#B2AAA8;" width="21.609" height="4.802"/>
<g>
	
		<ellipse transform="matrix(0.2277 -0.9737 0.9737 0.2277 137.0451 534.2532)" style="fill:#FFFFFF;" cx="405.321" cy="180.732" rx="63.177" ry="63.177"/>
</g>
<g>
	<polygon style="fill:#FFFFFF;" points="342.144,180.732 342.144,243.909 411.178,243.632 	"/>
</g>
<g>
	<path style="fill:#2C3E52;" d="M405.302,208c0,0.275-0.09,0.523-0.269,0.744c-0.18,0.221-0.476,0.399-0.89,0.537
		c-0.413,0.139-0.965,0.248-1.653,0.331c-0.689,0.083-1.558,0.124-2.604,0.124c-1.074,0-1.964-0.041-2.666-0.124
		c-0.703-0.083-1.255-0.192-1.654-0.331c-0.399-0.138-0.688-0.317-0.868-0.537c-0.179-0.221-0.269-0.469-0.269-0.744v-21.621H374.42
		V208c0,0.275-0.082,0.523-0.248,0.744c-0.165,0.221-0.454,0.399-0.868,0.537c-0.413,0.139-0.965,0.248-1.653,0.331
		c-0.689,0.083-1.571,0.124-2.645,0.124c-1.048,0-1.923-0.041-2.625-0.124c-0.703-0.083-1.261-0.192-1.675-0.331
		c-0.413-0.138-0.71-0.317-0.889-0.537c-0.18-0.221-0.268-0.469-0.268-0.744v-50.518c0-0.275,0.089-0.523,0.268-0.744
		c0.179-0.221,0.476-0.399,0.889-0.538c0.414-0.138,0.972-0.248,1.675-0.33c0.702-0.083,1.577-0.124,2.625-0.124
		c1.074,0,1.956,0.041,2.645,0.124c0.689,0.082,1.24,0.192,1.653,0.33c0.414,0.139,0.703,0.317,0.868,0.538
		c0.166,0.221,0.248,0.469,0.248,0.744v19.637h20.009v-19.637c0-0.275,0.09-0.523,0.269-0.744c0.18-0.221,0.469-0.399,0.868-0.538
		c0.399-0.138,0.951-0.248,1.654-0.33c0.702-0.083,1.592-0.124,2.666-0.124c1.047,0,1.915,0.041,2.604,0.124
		c0.689,0.082,1.24,0.192,1.653,0.33c0.414,0.139,0.71,0.317,0.89,0.538c0.179,0.221,0.269,0.469,0.269,0.744V208z"/>
	<path style="fill:#2C3E52;" d="M427.874,208c0,0.275-0.09,0.523-0.268,0.744c-0.18,0.221-0.476,0.399-0.89,0.537
		c-0.413,0.139-0.965,0.248-1.653,0.331c-0.689,0.083-1.571,0.124-2.646,0.124c-1.048,0-1.923-0.041-2.625-0.124
		c-0.703-0.083-1.261-0.192-1.675-0.331c-0.413-0.138-0.71-0.317-0.889-0.537c-0.18-0.221-0.269-0.469-0.269-0.744v-50.518
		c0-0.275,0.089-0.523,0.269-0.744c0.179-0.221,0.481-0.399,0.909-0.538c0.428-0.138,0.985-0.248,1.675-0.33
		c0.689-0.083,1.557-0.124,2.604-0.124c1.074,0,1.956,0.041,2.646,0.124c0.689,0.082,1.24,0.192,1.653,0.33
		c0.414,0.139,0.71,0.317,0.89,0.538c0.179,0.221,0.268,0.469,0.268,0.744V208z"/>
	<path style="fill:#2C3E52;" d="M454.868,204.072c0,1.131-0.09,2.082-0.269,2.852c-0.18,0.773-0.496,1.393-0.951,1.86
		c-0.454,0.47-1.054,0.807-1.798,1.013c-0.744,0.207-1.682,0.31-2.812,0.31c-1.13,0-2.074-0.104-2.831-0.31
		c-0.759-0.206-1.358-0.543-1.799-1.013c-0.441-0.468-0.751-1.088-0.93-1.86c-0.18-0.77-0.27-1.722-0.27-2.852
		c0-1.157,0.09-2.129,0.27-2.914c0.179-0.785,0.488-1.419,0.93-1.901c0.44-0.482,1.04-0.827,1.799-1.034
		c0.757-0.206,1.701-0.31,2.831-0.31c1.13,0,2.067,0.104,2.812,0.31c0.744,0.207,1.344,0.552,1.798,1.034
		c0.455,0.482,0.771,1.116,0.951,1.901C454.778,201.943,454.868,202.915,454.868,204.072z M453.587,191.96
		c-0.027,0.275-0.11,0.523-0.248,0.744c-0.139,0.221-0.379,0.407-0.724,0.558c-0.345,0.152-0.813,0.27-1.405,0.352
		c-0.593,0.083-1.316,0.124-2.171,0.124c-0.882,0-1.612-0.041-2.19-0.124c-0.579-0.082-1.041-0.199-1.385-0.352
		c-0.346-0.15-0.586-0.337-0.724-0.558c-0.139-0.221-0.221-0.469-0.248-0.744l-1.075-37.537c0-0.358,0.083-0.675,0.248-0.951
		c0.165-0.274,0.461-0.502,0.889-0.682c0.428-0.179,1.006-0.311,1.736-0.393c0.73-0.083,1.646-0.124,2.749-0.124
		c1.103,0,2.012,0.048,2.729,0.145c0.717,0.097,1.288,0.234,1.716,0.413c0.427,0.18,0.73,0.4,0.909,0.662
		c0.18,0.262,0.27,0.572,0.27,0.93L453.587,191.96z"/>
</g>
<path style="fill:#E1AD86;" d="M347.728,444.536c-7.27-10.077-19.701-31.874-23.487-38.407
	c-11.599-20.012-11.446-25.091-20.374-33.595c0,0-1.824-1.737-22.862-16.614l0,0l-30.428-19.969
	c-14.152-9.288-33.146,0.651-33.314,17.578c-0.068,6.807,2.231,14.152,8.85,21.33c22.755,24.676,35.687,23.894,35.687,23.894
	l19.206,27.289c0,0-8.485,38.493-5.311,60.493C278.866,508.534,362.823,486.62,347.728,444.536z"/>
<path style="fill:#D69E7A;" d="M220.324,366.623c0,0,14.406,25.347,41.474,32.129c0,0,12.343,35.284,19.206,44.533
	c0,0-16.027,26.833-16.082,50.042c0,0,17.504-43.792,33.224-41.792c0,0-24.419-30.799-21.849-56.4
	C276.296,395.135,252.782,396.711,220.324,366.623z"/>
<path style="fill:#F2D4B5;" d="M265.355,351.977c0,0-3.077,13.619-11.467,16.045c-8.39,2.426-31.609-11.04-29.313-17.08
	c2.296-6.04,10.879-16.986,16.861-16.384C247.417,335.16,266.925,347.156,265.355,351.977z"/>
</svg>
