<svg width="594" height="234" viewBox="0 0 594 234" fill="none" xmlns="http://www.w3.org/2000/svg">
<path d="M263.891 121.544C263.891 122.096 263.443 122.544 262.891 122.544H253.85C253.298 122.544 252.85 122.096 252.85 121.544V60.9799C252.85 60.4276 253.298 59.9799 253.85 59.9799H262.891C263.443 59.9799 263.891 60.4276 263.891 60.9799V121.544Z" fill="#00ADEF"/>
<path d="M282.152 122.544C281.6 122.544 281.152 122.096 281.152 121.544V60.9799C281.152 60.4276 281.6 59.9799 282.152 59.9799H290.78C291.091 59.9799 291.384 60.1244 291.573 60.3715C296.309 66.5738 300.809 73.129 305.074 80.0372C308.564 85.6415 311.799 91.3837 314.777 97.2639C315.269 98.2351 316.774 97.8515 316.726 96.7639L316.115 82.9813V60.9799C316.115 60.4276 316.562 59.9799 317.115 59.9799H325.695C326.248 59.9799 326.695 60.4276 326.695 60.9799V121.544C326.695 122.096 326.248 122.544 325.695 122.544H317.188C316.812 122.544 316.467 122.332 316.297 121.997C312.457 114.449 308.47 106.872 304.338 99.2664C300.737 92.4882 296.93 86.053 292.918 79.9606C292.367 79.1239 291.081 79.5414 291.115 80.5427L291.733 98.6223V121.544C291.733 122.096 291.285 122.544 290.733 122.544H282.152Z" fill="#00ADEF"/>
<path d="M352.422 97.7943C352.422 102.272 353.403 105.952 355.366 108.835C357.329 111.656 360.549 113.067 365.027 113.067C366.867 113.067 368.768 112.822 370.731 112.331C372.53 111.895 374.692 111.192 377.218 110.223C377.746 110.021 378.341 110.29 378.531 110.823L381.277 118.543C381.452 119.035 381.219 119.581 380.738 119.786C377.75 121.064 374.966 121.983 372.387 122.544C369.627 123.157 366.959 123.464 364.382 123.464C359.23 123.464 354.906 122.36 351.41 120.152C347.975 117.944 345.399 114.907 343.681 111.043C341.964 107.179 341.105 102.763 341.105 97.7943V84.6374C341.105 79.6691 341.964 75.2528 343.681 71.3886C345.399 67.5244 347.975 64.5188 351.41 62.372C354.906 60.1639 359.23 59.0598 364.382 59.0598C366.897 59.0598 369.504 59.3665 372.203 59.9799C374.661 60.4827 377.323 61.3419 380.189 62.5573C380.669 62.7607 380.903 63.3031 380.732 63.795L377.98 71.6783C377.791 72.2204 377.185 72.4915 376.652 72.2781C374.259 71.3205 372.224 70.6253 370.547 70.1925C368.645 69.7018 366.805 69.4565 365.027 69.4565C360.549 69.4565 357.329 70.8672 355.366 73.6887C353.403 76.5103 352.422 80.1598 352.422 84.6374V97.7943Z" fill="#00ADEF"/>
<path d="M428.171 111.963C428.723 111.963 429.171 112.411 429.171 112.963V121.544C429.171 122.096 428.723 122.544 428.171 122.544H394.105C393.553 122.544 393.105 122.096 393.105 121.544V60.9799C393.105 60.4276 393.553 59.9799 394.105 59.9799H403.146C403.698 59.9799 404.146 60.4276 404.146 60.9799V110.963C404.146 111.515 404.593 111.963 405.146 111.963H428.171Z" fill="#00ADEF"/>
<path d="M437.366 60.9799C437.366 60.4276 437.814 59.9799 438.366 59.9799H447.683C448.235 59.9799 448.683 60.4276 448.683 60.9799V100.094C448.683 104.143 449.572 107.332 451.351 109.663C453.13 111.933 455.982 113.067 459.908 113.067C463.833 113.067 466.685 111.933 468.464 109.663C470.243 107.332 471.132 104.143 471.132 100.094V60.9799C471.132 60.4276 471.58 59.9799 472.132 59.9799H481.449C482.001 59.9799 482.449 60.4276 482.449 60.9799V100.094C482.449 107.148 480.578 112.822 476.837 117.116C473.095 121.348 467.452 123.464 459.908 123.464C452.302 123.464 446.628 121.348 442.886 117.116C439.206 112.822 437.366 107.148 437.366 100.094V60.9799Z" fill="#00ADEF"/>
<path d="M499.319 122.544C498.766 122.544 498.319 122.096 498.319 121.544V60.9799C498.319 60.4276 498.766 59.9799 499.319 59.9799H519.48C526.963 59.9799 532.667 62.0653 536.593 66.2363C540.519 70.4072 542.481 76.5409 542.481 84.6374V97.7943C542.481 105.952 540.519 112.117 536.593 116.287C532.667 120.458 526.963 122.544 519.48 122.544H499.319ZM519.02 70.5606H510.359C509.807 70.5606 509.359 71.0083 509.359 71.5606V110.963C509.359 111.515 509.807 111.963 510.359 111.963H519.02C523.375 111.963 526.472 110.89 528.312 108.743C530.214 106.596 531.165 102.947 531.165 97.7943V84.6374C531.165 79.5465 530.214 75.9276 528.312 73.7808C526.472 71.634 523.375 70.5606 519.02 70.5606Z" fill="#00ADEF"/>
<path d="M592.33 111.963C592.883 111.963 593.33 112.411 593.33 112.963V121.544C593.33 122.096 592.883 122.544 592.33 122.544H558.08C557.528 122.544 557.08 122.096 557.08 121.544V60.9799C557.08 60.4276 557.528 59.9799 558.08 59.9799H591.41C591.963 59.9799 592.41 60.4276 592.41 60.9799V69.5606C592.41 70.1128 591.963 70.5606 591.41 70.5606H569.121C568.568 70.5606 568.121 71.0083 568.121 71.5606V84.5575C568.121 85.1098 568.568 85.5575 569.121 85.5575H588.65C589.202 85.5575 589.65 86.0052 589.65 86.5575V95.1382C589.65 95.6905 589.202 96.1382 588.65 96.1382H569.121C568.569 96.1382 568.121 96.5859 568.121 97.1382V110.963C568.121 111.515 568.568 111.963 569.121 111.963H592.33Z" fill="#00ADEF"/>
<path d="M252.85 156.587V153.232H270.39V156.587H263.595V175.321H259.645V156.587H252.85Z" fill="#00ADEF"/>
<path d="M273.771 175.321V153.232H288.069V156.587H277.753V162.583H287.328V165.938H277.753V171.967H288.155V175.321H273.771Z" fill="#00ADEF"/>
<path d="M310.949 160.685H306.934C306.82 160.024 306.609 159.438 306.301 158.927C305.993 158.409 305.611 157.971 305.153 157.611C304.695 157.252 304.172 156.982 303.585 156.802C303.006 156.615 302.38 156.522 301.707 156.522C300.512 156.522 299.453 156.824 298.529 157.428C297.606 158.025 296.884 158.902 296.361 160.06C295.839 161.21 295.578 162.616 295.578 164.277C295.578 165.966 295.839 167.39 296.361 168.548C296.891 169.698 297.613 170.568 298.529 171.158C299.453 171.74 300.508 172.031 301.696 172.031C302.354 172.031 302.97 171.945 303.542 171.772C304.122 171.593 304.641 171.33 305.099 170.985C305.564 170.64 305.954 170.216 306.269 169.712C306.591 169.209 306.813 168.634 306.934 167.987L310.949 168.008C310.799 169.058 310.473 170.043 309.972 170.963C309.478 171.884 308.831 172.696 308.029 173.401C307.228 174.098 306.29 174.645 305.217 175.04C304.143 175.429 302.952 175.623 301.642 175.623C299.71 175.623 297.986 175.173 296.469 174.275C294.951 173.376 293.756 172.078 292.883 170.381C292.01 168.684 291.574 166.649 291.574 164.277C291.574 161.897 292.014 159.862 292.894 158.172C293.774 156.475 294.973 155.177 296.49 154.279C298.007 153.38 299.725 152.93 301.642 152.93C302.866 152.93 304.004 153.103 305.056 153.448C306.108 153.793 307.045 154.3 307.868 154.969C308.691 155.63 309.368 156.443 309.897 157.406C310.434 158.363 310.784 159.456 310.949 160.685Z" fill="#00ADEF"/>
<path d="M314.596 175.321V153.232H318.578V162.583H328.765V153.232H332.758V175.321H328.765V165.938H318.578V175.321H314.596Z" fill="#00ADEF"/>
<path d="M355.155 153.232V175.321H351.613L341.255 160.275H341.072V175.321H337.09V153.232H340.653L351.001 168.289H351.194V153.232H355.155Z" fill="#00ADEF"/>
<path d="M379.138 164.277C379.138 166.657 378.695 168.695 377.807 170.392C376.927 172.082 375.725 173.376 374.201 174.275C372.684 175.173 370.962 175.623 369.037 175.623C367.112 175.623 365.388 175.173 363.864 174.275C362.346 173.369 361.144 172.071 360.257 170.381C359.377 168.684 358.937 166.649 358.937 164.277C358.937 161.897 359.377 159.862 360.257 158.172C361.144 156.475 362.346 155.177 363.864 154.279C365.388 153.38 367.112 152.93 369.037 152.93C370.962 152.93 372.684 153.38 374.201 154.279C375.725 155.177 376.927 156.475 377.807 158.172C378.695 159.862 379.138 161.897 379.138 164.277ZM375.135 164.277C375.135 162.601 374.873 161.188 374.351 160.038C373.836 158.88 373.12 158.007 372.204 157.417C371.288 156.82 370.233 156.522 369.037 156.522C367.842 156.522 366.787 156.82 365.871 157.417C364.955 158.007 364.236 158.88 363.713 160.038C363.198 161.188 362.94 162.601 362.94 164.277C362.94 165.952 363.198 167.368 363.713 168.526C364.236 169.676 364.955 170.55 365.871 171.147C366.787 171.736 367.842 172.031 369.037 172.031C370.233 172.031 371.288 171.736 372.204 171.147C373.12 170.55 373.836 169.676 374.351 168.526C374.873 167.368 375.135 165.952 375.135 164.277Z" fill="#00ADEF"/>
<path d="M382.903 175.321V153.232H386.886V171.967H396.568V175.321H382.903Z" fill="#00ADEF"/>
<path d="M418.812 164.277C418.812 166.657 418.369 168.695 417.481 170.392C416.601 172.082 415.399 173.376 413.874 174.275C412.357 175.173 410.636 175.623 408.711 175.623C406.786 175.623 405.062 175.173 403.537 174.275C402.02 173.369 400.818 172.071 399.931 170.381C399.05 168.684 398.61 166.649 398.61 164.277C398.61 161.897 399.05 159.862 399.931 158.172C400.818 156.475 402.02 155.177 403.537 154.279C405.062 153.38 406.786 152.93 408.711 152.93C410.636 152.93 412.357 153.38 413.874 154.279C415.399 155.177 416.601 156.475 417.481 158.172C418.369 159.862 418.812 161.897 418.812 164.277ZM414.808 164.277C414.808 162.601 414.547 161.188 414.025 160.038C413.509 158.88 412.794 158.007 411.878 157.417C410.962 156.82 409.906 156.522 408.711 156.522C407.516 156.522 406.461 156.82 405.545 157.417C404.629 158.007 403.909 158.88 403.387 160.038C402.872 161.188 402.614 162.601 402.614 164.277C402.614 165.952 402.872 167.368 403.387 168.526C403.909 169.676 404.629 170.55 405.545 171.147C406.461 171.736 407.516 172.031 408.711 172.031C409.906 172.031 410.962 171.736 411.878 171.147C412.794 170.55 413.509 169.676 414.025 168.526C414.547 167.368 414.808 165.952 414.808 164.277Z" fill="#00ADEF"/>
<path d="M437.305 160.286C437.126 159.704 436.879 159.182 436.564 158.722C436.256 158.255 435.884 157.856 435.448 157.525C435.018 157.194 434.524 156.946 433.966 156.781C433.408 156.608 432.8 156.522 432.141 156.522C430.961 156.522 429.909 156.82 428.986 157.417C428.062 158.014 427.336 158.891 426.807 160.049C426.284 161.199 426.023 162.601 426.023 164.255C426.023 165.923 426.284 167.336 426.807 168.494C427.329 169.651 428.055 170.532 428.986 171.136C429.916 171.733 430.996 172.031 432.227 172.031C433.344 172.031 434.31 171.816 435.126 171.384C435.949 170.953 436.582 170.342 437.026 169.551C437.469 168.752 437.691 167.818 437.691 166.746L438.593 166.887H432.624V163.759H441.545V166.412C441.545 168.303 441.144 169.939 440.342 171.319C439.541 172.7 438.439 173.764 437.036 174.512C435.634 175.252 434.024 175.623 432.206 175.623C430.181 175.623 428.402 175.166 426.871 174.253C425.347 173.333 424.155 172.028 423.296 170.338C422.445 168.641 422.019 166.628 422.019 164.298C422.019 162.515 422.27 160.922 422.77 159.52C423.279 158.118 423.987 156.928 424.896 155.95C425.805 154.965 426.871 154.217 428.095 153.707C429.318 153.189 430.649 152.93 432.088 152.93C433.304 152.93 434.439 153.11 435.491 153.47C436.542 153.822 437.476 154.325 438.292 154.98C439.115 155.634 439.791 156.41 440.321 157.309C440.851 158.208 441.198 159.2 441.362 160.286H437.305Z" fill="#00ADEF"/>
<path d="M443.066 153.232H447.564L452.942 163.004H453.156L458.534 153.232H463.032L455.035 167.081V175.321H451.063V167.081L443.066 153.232Z" fill="#00ADEF"/>
<path d="M100.349 30C108.047 16.6666 127.292 16.6666 134.99 29.9999L201.674 145.5C209.373 158.834 199.75 175.5 184.354 175.5H50.9855C35.5895 175.5 25.967 158.834 33.665 145.5L100.349 30Z" fill="#00ADEF"/>
<path d="M102.081 203C109.009 215 126.33 215 133.258 203L199.942 87.5C206.871 75.5 198.21 60.5 184.354 60.5H50.9855C37.1291 60.5 28.4689 75.5 35.3971 87.5L102.081 203Z" fill="white" stroke="#1D4277" stroke-width="4"/>
<path d="M102.305 135.786C103.464 135.786 104.498 135.534 105.405 135.03L105.027 143.573C102.658 145.538 99.9617 146.521 96.9378 146.521C92.3515 146.521 89.378 145.463 88.0173 143.346C87.1101 141.935 86.6565 140.448 86.6565 138.886C86.6565 137.273 86.7573 135.862 86.9589 134.652L91.4948 109.1H104.346L100.113 132.913C100.063 133.216 100.037 133.493 100.037 133.745C100.037 135.106 100.793 135.786 102.305 135.786ZM93.0067 96.7775C93.0067 93.552 93.7123 91.2085 95.1235 89.7469C96.585 88.235 98.8278 87.479 101.852 87.479C106.085 87.479 108.202 89.3438 108.202 93.0732C108.202 96.2484 107.471 98.5667 106.01 100.028C104.598 101.49 102.356 102.221 99.2813 102.221C95.0983 102.221 93.0067 100.406 93.0067 96.7775Z" fill="#00ADEF"/>
<path d="M126.23 146.521C120.384 146.521 116.176 145.211 113.605 142.59C111.69 140.675 110.733 138.104 110.733 134.879C110.733 133.821 110.833 132.687 111.035 131.477L116.176 102.221L130.01 96.4752L127.818 109.1H148.683L146.793 119.759H125.928L124.416 128.302C124.214 129.259 124.113 130.116 124.113 130.872C124.113 134.047 125.625 135.635 128.649 135.635C130.262 135.635 131.598 134.954 132.656 133.594C133.765 132.233 134.521 130.419 134.924 128.151H147.473C145.356 140.398 138.275 146.521 126.23 146.521Z" fill="#00ADEF"/>
<path d="M87.6967 51.8669L83.8613 58.5056L151.424 58.5568L147.496 51.8669H87.6967Z" fill="#1D54A6"/>
<path d="M188.906 123.6L185.079 116.956L151.208 175.415L158.965 175.364L188.906 123.6Z" fill="#1D54A6"/>
<path d="M46.1635 123.6L49.9898 116.956L83.8614 175.415L76.1039 175.364L46.1635 123.6Z" fill="#1D54A6"/>
</svg>
