<svg width="302" height="302" viewBox="0 0 302 302" fill="none" xmlns="http://www.w3.org/2000/svg">
<g clip-path="url(#clip0_947_201)">
<path d="M133.679 29.5098C141.377 16.1764 160.622 16.1764 168.32 29.5098L264.874 196.745C272.572 210.078 262.949 226.745 247.553 226.745H54.4467C39.0507 226.745 29.4282 210.078 37.1262 196.745L133.679 29.5098Z" fill="#00ADEF"/>
<path d="M166.588 271.49L263.142 104.255C270.07 92.2546 261.41 77.2546 247.553 77.2546H54.4467C40.5903 77.2546 31.9301 92.2546 38.8583 104.255L135.412 271.49C142.34 283.49 159.66 283.49 166.588 271.49Z" fill="white" stroke="#1D4277" stroke-width="4"/>
<path d="M131.106 175.324C132.607 175.324 133.945 174.997 135.12 174.345L134.63 185.405C131.563 187.95 128.072 189.223 124.157 189.223C118.219 189.223 114.368 187.853 112.607 185.112C111.432 183.285 110.845 181.36 110.845 179.337C110.845 177.249 110.975 175.421 111.236 173.855L117.109 140.771H133.749L128.268 171.604C128.203 171.996 128.17 172.354 128.17 172.681C128.17 174.443 129.149 175.324 131.106 175.324ZM119.067 124.816C119.067 120.64 119.98 117.605 121.808 115.713C123.7 113.755 126.604 112.776 130.519 112.776C136.001 112.776 138.741 115.191 138.741 120.02C138.741 124.131 137.795 127.133 135.903 129.025C134.076 130.917 131.172 131.864 127.191 131.864C121.775 131.864 119.067 129.514 119.067 124.816Z" fill="#00ADEF"/>
<path d="M162.084 189.223C154.514 189.223 149.066 187.526 145.738 184.133C143.258 181.653 142.018 178.325 142.018 174.149C142.018 172.779 142.149 171.31 142.41 169.744L149.066 131.864L166.978 124.424L164.14 140.771H191.155L188.708 154.572H161.693L159.735 165.633C159.474 166.873 159.343 167.982 159.343 168.961C159.343 173.072 161.301 175.128 165.216 175.128C167.304 175.128 169.034 174.247 170.404 172.485C171.84 170.723 172.819 168.374 173.341 165.437H189.589C186.848 181.294 177.68 189.223 162.084 189.223Z" fill="#00ADEF"/>
<path d="M112.192 66.666L107.225 75.2616L194.705 75.3279L189.619 66.666H112.192Z" fill="#1D54A6"/>
<path d="M243.235 159.544L238.281 150.942L194.424 226.633L204.468 226.568L243.235 159.544Z" fill="#1D54A6"/>
<path d="M58.4147 159.544L63.3689 150.942L107.225 226.633L97.1811 226.568L58.4147 159.544Z" fill="#1D54A6"/>
</g>
<defs>
<clipPath id="clip0_947_201">
<rect width="302" height="302" fill="white"/>
</clipPath>
</defs>
</svg>
